<?xml version="1.0" encoding="utf-8"?>
<!-- Generator: Adobe Illustrator 15.0.0, SVG Export Plug-In  -->
<!DOCTYPE svg PUBLIC "-//W3C//DTD SVG 1.1//EN" "http://www.w3.org/Graphics/SVG/1.1/DTD/svg11.dtd" [
	<!ENTITY ns_flows "http://ns.adobe.com/Flows/1.0/">
]>
<svg version="1.1"
	 xmlns="http://www.w3.org/2000/svg" xmlns:xlink="http://www.w3.org/1999/xlink" xmlns:a="http://ns.adobe.com/AdobeSVGViewerExtensions/3.0/"
	 x="0px" y="0px" width="200px" height="140px" viewBox="-5 -20.005 200 140" enable-background="new -5 -20.005 200 140"
	 xml:space="preserve">
<defs>
</defs>
<g>
	<g>
		<path fill="#DBDEE1" d="M138.404,79.331c0,0-23.93-6.171-27.306-12.887c-1.535-3.073-0.017-7.008,1.518-9.715
			c0.703-0.946,1.39-1.951,2.052-3.016v-0.013c3.995-6.395,7.043-14.835,7.353-25.259C122.489,12.766,110.39,0.034,96.035,0
			c-0.013,0-0.024,0-0.036,0c-0.006,0-0.017,0-0.029,0C81.614,0.034,69.515,12.766,69.984,28.442
			c0.311,10.424,3.356,18.864,7.348,25.259l0.005,0.013c0.662,1.064,1.349,2.069,2.051,3.016c1.535,2.707,3.06,6.642,1.512,9.715
			c-3.362,6.716-27.304,12.887-27.304,12.887c-4.606,1.537-7.929,5.909-7.929,11.052v10.605h100.665V90.383
			C146.332,85.24,143.015,80.868,138.404,79.331z M186.234,85.24v-0.011c-0.264-0.082-17.421-4.48-19.875-9.362
			c-1.114-2.233-0.019-5.096,1.107-7.058c0.51-0.698,1.008-1.431,1.488-2.199c2.9-4.669,5.121-10.792,5.35-18.369
			c0.34-11.408-8.462-20.665-18.915-20.688c-0.005,0-0.017,0-0.017,0c-0.012,0-0.024,0-0.029,0
			c-10.448,0.023-19.26,9.28-18.908,20.688c0.223,7.577,2.443,13.7,5.344,18.369c0.485,0.769,0.984,1.501,1.499,2.199
			c0.077,0.131,0.153,0.271,0.229,0.415c8.473,3.532,14.063,11.831,14.063,21.158v10.605h34.429V93.28
			C191.999,89.532,189.592,86.364,186.234,85.24z M48.727,68.81c0.51-0.698,1.013-1.431,1.499-2.199
			c2.9-4.669,5.122-10.792,5.344-18.369c0.353-11.408-8.46-20.665-18.907-20.688c-0.006,0-0.019,0-0.029,0c-0.006,0-0.006,0-0.019,0
			c-10.452,0.023-19.253,9.28-18.914,20.688c0.229,7.577,2.443,13.7,5.351,18.369c0.48,0.769,0.979,1.501,1.493,2.199
			c1.119,1.962,2.216,4.824,1.096,7.058c-2.455,4.882-19.604,9.28-19.869,9.362v0.011C2.414,86.364,0,89.532,0,93.28v7.708h34.436
			V90.383c0-9.327,5.589-17.626,14.062-21.158C48.573,69.081,48.649,68.94,48.727,68.81z"/>
	</g>
</g>
</svg>
