<?xml version="1.0" encoding="utf-8"?>
<!-- Generator: Adobe Illustrator 15.0.0, SVG Export Plug-In  -->
<!DOCTYPE svg PUBLIC "-//W3C//DTD SVG 1.1//EN" "http://www.w3.org/Graphics/SVG/1.1/DTD/svg11.dtd" [
	<!ENTITY ns_flows "http://ns.adobe.com/Flows/1.0/">
]>
<svg version="1.1"
	 xmlns="http://www.w3.org/2000/svg" xmlns:xlink="http://www.w3.org/1999/xlink" xmlns:a="http://ns.adobe.com/AdobeSVGViewerExtensions/3.0/"
	 x="0px" y="0px" width="140px" height="140px" viewBox="-28.948 -14.998 140 140" enable-background="new -28.948 -14.998 140 140"
	 xml:space="preserve">
<defs>
</defs>
<path fill="#DBDEE1" d="M41.559,0L41.559,0c-0.004,0-0.004,0-0.004,0c-0.004,0-0.007,0-0.007,0l0,0C18.6,0.007,0,18.614,0,41.556
	C0,71.162,41.548,112,41.548,112s41.555-40.838,41.555-70.444C83.103,18.614,64.503,0.007,41.559,0z M41.551,62.891
	c-11.832,0-21.429-9.591-21.429-21.431c0-11.833,9.597-21.423,21.429-21.423c11.84,0,21.433,9.59,21.433,21.423
	C62.983,53.3,53.391,62.891,41.551,62.891z"/>
</svg>
