<?xml version="1.0" encoding="utf-8"?>
<!-- Generator: Adobe Illustrator 15.0.0, SVG Export Plug-In  -->
<!DOCTYPE svg PUBLIC "-//W3C//DTD SVG 1.1//EN" "http://www.w3.org/Graphics/SVG/1.1/DTD/svg11.dtd" [
	<!ENTITY ns_flows "http://ns.adobe.com/Flows/1.0/">
]>
<svg version="1.1"
	 xmlns="http://www.w3.org/2000/svg" xmlns:xlink="http://www.w3.org/1999/xlink" xmlns:a="http://ns.adobe.com/AdobeSVGViewerExtensions/3.0/"
	 x="0px" y="0px" width="140px" height="140px" viewBox="-12 -12.963 140 140" enable-background="new -12 -12.963 140 140"
	 xml:space="preserve">
<defs>
</defs>
<g>
	<g>
		<path fill="#DBDEE1" d="M117.941,42.732H39.273l78.489-18.214l-4.004-17.451c-1.124-4.892-5.928-7.952-10.73-6.838l-96.106,22.3
			c-4.083,0.948-6.856,4.61-6.907,8.698H0l0.021,75.748c0,5.022,4.047,9.095,9.038,9.095h99.901c4.99,0,9.039-4.072,9.039-9.095
			L117.941,42.732z M92.734,9.687l15.543,10.193L96.293,22.66L80.75,12.472L92.734,9.687z M68.557,15.3L84.1,25.497l-11.985,2.778
			L56.572,18.087L68.557,15.3z M44.963,20.778l15.542,10.196l-11.984,2.777L32.979,23.556L44.963,20.778z M20.85,26.372
			l15.535,10.195l-11.984,2.777L8.865,29.157L20.85,26.372z M108.953,106.975H9.038v-55.17h99.915V106.975z M49.572,65.002V94.53
			l23.515-14.768L49.572,65.002z"/>
	</g>
</g>
</svg>
