<?xml version="1.0" encoding="utf-8"?>
<!-- Generator: Adobe Illustrator 15.0.0, SVG Export Plug-In  -->
<!DOCTYPE svg PUBLIC "-//W3C//DTD SVG 1.1//EN" "http://www.w3.org/Graphics/SVG/1.1/DTD/svg11.dtd" [
	<!ENTITY ns_flows "http://ns.adobe.com/Flows/1.0/">
]>
<svg version="1.1"
	 xmlns="http://www.w3.org/2000/svg" xmlns:xlink="http://www.w3.org/1999/xlink" xmlns:a="http://ns.adobe.com/AdobeSVGViewerExtensions/3.0/"
	 x="0px" y="0px" width="40px" height="40px" viewBox="-7.85 -5.5 40 40" enable-background="new -7.85 -5.5 40 40"
	 xml:space="preserve">
<defs>
</defs>
<path fill="#5E5458" d="M0,0v30h26.988V0H0z M5.593,27.789H2.258v-3.397h3.335V27.789z M5.593,22.291H2.258v-3.398h3.335V22.291z
	 M5.593,16.698H2.258v-3.399h3.335V16.698z M5.593,11.198H2.258V7.8h3.335V11.198z M5.593,5.699H2.258v-3.4h3.335V5.699z
	 M19.135,27.789H7.851V16.292h11.284V27.789z M19.135,13.799H7.851v-11.5h11.284V13.799z M24.73,27.789h-3.339v-3.397h3.339V27.789z
	 M24.73,22.291h-3.339v-3.398h3.339V22.291z M24.73,16.698h-3.339v-3.399h3.339V16.698z M24.73,11.198h-3.339V7.8h3.339V11.198z
	 M24.73,5.699h-3.339v-3.4h3.339V5.699z"/>
</svg>
