<?xml version="1.0" encoding="utf-8"?>
<!-- Generator: Adobe Illustrator 15.0.0, SVG Export Plug-In  -->
<!DOCTYPE svg PUBLIC "-//W3C//DTD SVG 1.1//EN" "http://www.w3.org/Graphics/SVG/1.1/DTD/svg11.dtd" [
	<!ENTITY ns_flows "http://ns.adobe.com/Flows/1.0/">
]>
<svg version="1.1"
	 xmlns="http://www.w3.org/2000/svg" xmlns:xlink="http://www.w3.org/1999/xlink" xmlns:a="http://ns.adobe.com/AdobeSVGViewerExtensions/3.0/"
	 x="0px" y="0px" width="140px" height="140px" viewBox="-24.985 -19.999 140 140" enable-background="new -24.985 -19.999 140 140"
	 xml:space="preserve">
<defs>
</defs>
<path fill="#DBDEE1" d="M0,0v101h92.029V0H0z M19.073,93.558H7.699v-11.44h11.374V93.558z M19.073,75.046H7.699v-11.44h11.374
	V75.046z M19.073,56.22H7.699V44.772h11.374V56.22z M19.073,37.702H7.699V26.261h11.374V37.702z M19.073,19.189H7.699V7.741h11.374
	V19.189z M65.251,93.558H26.772V54.852h38.479V93.558z M65.251,46.456H26.772V7.741h38.479V46.456z M84.331,93.558H72.945v-11.44
	h11.386V93.558z M84.331,75.046H72.945v-11.44h11.386V75.046z M84.331,56.22H72.945V44.772h11.386V56.22z M84.331,37.702H72.945
	V26.261h11.386V37.702z M84.331,19.189H72.945V7.741h11.386V19.189z"/>
</svg>
