<?xml version="1.0" encoding="utf-8"?>
<!-- Generator: Adobe Illustrator 15.0.0, SVG Export Plug-In  -->
<!DOCTYPE svg PUBLIC "-//W3C//DTD SVG 1.1//EN" "http://www.w3.org/Graphics/SVG/1.1/DTD/svg11.dtd" [
	<!ENTITY ns_flows "http://ns.adobe.com/Flows/1.0/">
]>
<svg version="1.1"
	 xmlns="http://www.w3.org/2000/svg" xmlns:xlink="http://www.w3.org/1999/xlink" xmlns:a="http://ns.adobe.com/AdobeSVGViewerExtensions/3.0/"
	 x="0px" y="0px" width="140px" height="140px" viewBox="-9.974 -12.954 140 140" enable-background="new -9.974 -12.954 140 140"
	 xml:space="preserve">
<defs>
</defs>
<g>
	<g>
		<path fill="#574C50" d="M121.999,34.599c0-4.229-3.414-7.659-7.624-7.659h-12.984c3.359-3.334,5.493-7.721,5.493-13.1
			C106.884,7.206,103.09,0,92.442,0C78.432,0,66.726,14.984,61.228,23.384C55.724,14.984,43.661,0,29.651,0
			C19.002,0,15.208,7.206,15.208,13.84c0,5.378,2.191,9.765,5.619,13.1H7.625C3.414,26.94,0,30.369,0,34.599v22.924h7.691v49.849
			c0,4.229,3.415,7.658,7.625,7.658h91.463c4.211,0,7.625-3.429,7.625-7.658V57.522h7.595V34.599z M92.442,7.659
			c4.713,0,6.816,1.989,6.816,6.182c0,8.508-9.453,13.096-18.344,13.096H68.007C73.424,18.855,82.959,7.659,92.442,7.659z
			 M29.651,7.659c9.483,0,19.379,11.197,24.796,19.277H41.535c-8.891,0-18.702-4.708-18.702-13.215
			C22.833,9.529,24.938,7.659,29.651,7.659z M114.375,49.864H64.812V34.599h49.563V49.864z M7.625,34.599h49.563v15.265H7.625
			V34.599z M15.316,57.522h41.871v49.849H15.316V57.522z M106.779,107.372H64.812V57.522h41.968V107.372z"/>
	</g>
</g>
</svg>
