<?xml version="1.0" encoding="utf-8"?>
<!-- Generator: Adobe Illustrator 15.0.0, SVG Export Plug-In  -->
<!DOCTYPE svg PUBLIC "-//W3C//DTD SVG 1.1//EN" "http://www.w3.org/Graphics/SVG/1.1/DTD/svg11.dtd" [
	<!ENTITY ns_flows "http://ns.adobe.com/Flows/1.0/">
]>
<svg version="1.1"
	 xmlns="http://www.w3.org/2000/svg" xmlns:xlink="http://www.w3.org/1999/xlink" xmlns:a="http://ns.adobe.com/AdobeSVGViewerExtensions/3.0/"
	 x="0px" y="0px" width="140px" height="140px" viewBox="-6 -5.998 140 140" enable-background="new -6 -5.998 140 140"
	 xml:space="preserve">
<defs>
</defs>
<g>
	<g>
		<path fill="#DBDEE1" d="M64.5,0C28.88,0,0,28.872,0,64.501C0,100.12,28.88,129,64.5,129c35.624,0,64.5-28.88,64.5-64.499
			C129,28.872,100.124,0,64.5,0z M64.5,114.37c-27.545,0-49.878-22.328-49.878-49.869c0-27.551,22.333-49.888,49.878-49.888
			c27.549,0,49.883,22.337,49.883,49.888C114.383,92.042,92.049,114.37,64.5,114.37z M84.192,64.406L64.5,24.936L44.813,64.406
			h-0.09l0.047,0.095l-0.047,0.085h0.09L64.5,104.057l19.692-39.471h0.087l-0.04-0.085l0.04-0.095H84.192z M64.745,71.807
			c-4.036,0-7.311-3.275-7.311-7.306c0-4.041,3.275-7.308,7.311-7.308c4.039,0,7.314,3.267,7.314,7.308
			C72.059,68.531,68.784,71.807,64.745,71.807z"/>
	</g>
</g>
</svg>
