<?xml version="1.0" encoding="utf-8"?>
<!-- Generator: Adobe Illustrator 15.0.0, SVG Export Plug-In  -->
<!DOCTYPE svg PUBLIC "-//W3C//DTD SVG 1.1//EN" "http://www.w3.org/Graphics/SVG/1.1/DTD/svg11.dtd" [
	<!ENTITY ns_flows "http://ns.adobe.com/Flows/1.0/">
]>
<svg version="1.1"
	 xmlns="http://www.w3.org/2000/svg" xmlns:xlink="http://www.w3.org/1999/xlink" xmlns:a="http://ns.adobe.com/AdobeSVGViewerExtensions/3.0/"
	 x="0px" y="0px" width="20px" height="50px" viewBox="-1.461 -2.557 20 50" enable-background="new -1.461 -2.557 20 50"
	 xml:space="preserve">
<defs>
</defs>
<g>
	<g>
		<path fill="#4C4145" d="M9.453,21.443H7.563C3.386,21.443,0,24.737,0,28.803v9.279c0,4.065,3.386,7.361,7.563,7.361h1.891
			c4.178,0,7.563-3.296,7.563-7.361v-9.279C17.016,24.737,13.631,21.443,9.453,21.443z M14.222,38.082
			c0,1.239-0.496,2.405-1.397,3.281c-0.9,0.876-2.098,1.359-3.371,1.359H7.563c-1.274,0-2.47-0.483-3.371-1.359
			c-0.9-0.876-1.396-2.042-1.396-3.281v-9.279c0-1.239,0.496-2.404,1.396-3.283c0.901-0.875,2.097-1.357,3.371-1.357h1.891
			c1.273,0,2.471,0.482,3.371,1.357c0.901,0.879,1.397,2.044,1.397,3.283V38.082z M8.508,26c-0.771,0-1.397,0.611-1.397,1.361v2.801
			c0,0.75,0.626,1.357,1.397,1.357s1.397-0.607,1.397-1.357v-2.801C9.905,26.611,9.279,26,8.508,26z"/>
	</g>
</g>
<path fill="#4C4145" d="M8.508,11c-0.771,0-1.397,0.611-1.397,1.361v2.801c0,0.75,0.626,1.357,1.397,1.357s1.397-0.607,1.397-1.357
	v-2.801C9.905,11.611,9.279,11,8.508,11z"/>
<path fill="#4C4145" d="M8.508,0C7.736,0,7.11,0.611,7.11,1.361v2.801c0,0.75,0.626,1.357,1.397,1.357s1.397-0.607,1.397-1.357
	V1.361C9.905,0.611,9.279,0,8.508,0z"/>
</svg>
