<?xml version="1.0" encoding="utf-8"?>
<!-- Generator: Adobe Illustrator 15.0.0, SVG Export Plug-In  -->
<!DOCTYPE svg PUBLIC "-//W3C//DTD SVG 1.1//EN" "http://www.w3.org/Graphics/SVG/1.1/DTD/svg11.dtd" [
	<!ENTITY ns_flows "http://ns.adobe.com/Flows/1.0/">
]>
<svg version="1.1"
	 xmlns="http://www.w3.org/2000/svg" xmlns:xlink="http://www.w3.org/1999/xlink" xmlns:a="http://ns.adobe.com/AdobeSVGViewerExtensions/3.0/"
	 x="0px" y="0px" width="10px" height="11px" viewBox="-1.997 -1.002 10 11" enable-background="new -1.997 -1.002 10 11"
	 xml:space="preserve">
<defs>
</defs>
<path fill-rule="evenodd" clip-rule="evenodd" fill="#1D1D1D" d="M5.826,4.889c0.121-0.113,0.182-0.246,0.182-0.397
	c0-0.152-0.061-0.284-0.182-0.398L1.644,0.169C1.522,0.056,1.383,0,1.223,0c-0.159,0-0.3,0.056-0.421,0.169L0.181,0.754
	C0.06,0.867,0,0.998,0,1.148S0.06,1.43,0.181,1.544l3.163,2.97L0.181,7.45C0.06,7.563,0,7.693,0,7.84
	c0,0.145,0.06,0.274,0.181,0.389l0.622,0.596c0.121,0.113,0.262,0.17,0.424,0.17c0.162,0,0.301-0.057,0.417-0.17L5.826,4.889
	L5.826,4.889z"/>
</svg>
