<?xml version="1.0" encoding="utf-8"?>
<!-- Generator: Adobe Illustrator 15.0.0, SVG Export Plug-In  -->
<!DOCTYPE svg PUBLIC "-//W3C//DTD SVG 1.1//EN" "http://www.w3.org/Graphics/SVG/1.1/DTD/svg11.dtd" [
	<!ENTITY ns_flows "http://ns.adobe.com/Flows/1.0/">
]>
<svg version="1.1"
	 xmlns="http://www.w3.org/2000/svg" xmlns:xlink="http://www.w3.org/1999/xlink" xmlns:a="http://ns.adobe.com/AdobeSVGViewerExtensions/3.0/"
	 x="0px" y="0px" width="140px" height="140px" viewBox="-9.973 -10 140 140" enable-background="new -9.973 -10 140 140"
	 xml:space="preserve">
<defs>
</defs>
<g>
	<g>
		<path fill="#574C50" d="M93.079,72.336c-1.937-0.867-4.181,0.008-5.033,1.929c-0.078,0.171-7.879,17.183-27.336,17.409
			c-0.119,0-0.238,0.004-0.357,0.004c-18.307,0-26.203-16.725-26.531-17.442c-0.871-1.906-3.12-2.755-5.041-1.892
			c-1.917,0.867-2.77,3.123-1.902,5.045c0.406,0.9,10.172,21.914,33.46,21.914c0.152,0,0.309-0.004,0.462-0.004
			c24.289-0.286,33.817-21.047,34.208-21.929C95.868,75.445,95,73.193,93.079,72.336z M60.999,0C27.309,0,0,27.309,0,61
			c0,33.69,27.309,61,60.999,61c33.691,0,61-27.31,61-61C121.999,27.309,94.69,0,60.999,0z M60.999,114.375
			C31.568,114.375,7.624,90.432,7.624,61S31.568,7.625,60.999,7.625c29.432,0,53.375,23.943,53.375,53.375
			S90.431,114.375,60.999,114.375z M41.877,57.168c4.202,0,7.606-3.407,7.606-7.606c0-4.196-3.404-7.604-7.606-7.604
			c-4.203,0-7.606,3.407-7.606,7.604C34.271,53.761,37.674,57.168,41.877,57.168z M80.002,57.168c4.202,0,7.606-3.407,7.606-7.606
			c0-4.196-3.404-7.604-7.606-7.604c-4.203,0-7.607,3.407-7.607,7.604C72.395,53.761,75.799,57.168,80.002,57.168z"/>
	</g>
</g>
</svg>
