<?xml version="1.0" encoding="utf-8"?>
<!-- Generator: Adobe Illustrator 15.0.0, SVG Export Plug-In  -->
<!DOCTYPE svg PUBLIC "-//W3C//DTD SVG 1.1//EN" "http://www.w3.org/Graphics/SVG/1.1/DTD/svg11.dtd" [
	<!ENTITY ns_flows "http://ns.adobe.com/Flows/1.0/">
]>
<svg version="1.1"
	 xmlns="http://www.w3.org/2000/svg" xmlns:xlink="http://www.w3.org/1999/xlink" xmlns:a="http://ns.adobe.com/AdobeSVGViewerExtensions/3.0/"
	 x="0px" y="0px" width="140px" height="140px" viewBox="-8.001 -8 140 140" enable-background="new -8.001 -8 140 140"
	 xml:space="preserve">
<defs>
</defs>
<path fill-rule="evenodd" clip-rule="evenodd" fill="#FFF7E0" d="M56.625,65.609l-7.731,7.99H37.976l7.8-7.99H56.625z
	 M48.352,52.947l8.273,7.448h-10.85l-7.8-7.448H48.352z M65.915,69.197l7.799,7.787v11.104l-7.799-7.517V69.197z M53.03,77.187
	l7.257-7.989v11.104l-7.257,7.788V77.187z M88.227,73.6H76.834l-7.528-7.99h11.393L88.227,73.6z M80.155,60.395h-10.85l8.002-7.448
	h10.647L80.155,60.395z M73.714,38.187v10.902l-7.799,7.448V45.704L73.714,38.187z M60.288,45.704v10.833l-7.257-7.448V38.187
	L60.288,45.704z M51.945,95.808l8.343-7.719v18.823l-11.936,11.645l3.593,3.588l8.343-8.261v12.121h5.424v-11.579l8.002,7.719
	l3.594-3.588l-11.596-11.645V88.089l8.002,7.719l4.883-2.032V82.401l13.223,13.406l0.271,16.249h5.154v-11.308l8.002,8.735
	l3.933-3.59l-8.34-8.802h11.664v-5.146H95.958L82.53,79.016h11.121l2.307-4.875l-8.003-8.531h18.853l11.664,12.119l3.863-3.588
	l-8.273-8.531h11.936v-5.214h-11.936l8.273-8.26l-3.863-3.858l-11.664,12.119H87.955l8.003-8.26l-2.307-4.604H82.53l13.428-13.473
	h16.546v-5.146H100.84l8.34-8.26l-3.933-3.861l-8.273,8.26V13.406h-5.426v16.791L78.597,43.875V32.5l-4.883-2.302l-8.002,7.99V19.84
	L77.579,7.448L73.714,3.59l-8.002,8.802V0h-5.424v11.85l-8.343-8.26l-3.593,4.399L60.288,19.84v18.347l-8.343-7.99l-4.34,2.302
	v11.375L34.111,30.197V13.406h-5.425v11.646l-8.816-8.26l-3.867,3.861l8.544,8.26H13.427v5.417h16.547L43.47,47.531H31.806
	l-1.832,5.146l8.002,7.719H19.124L7.188,48.276l-3.593,4.4l8.273,7.719H0v5.214h11.597l-8.002,8.531l3.593,3.588l11.936-12.119
	h18.852l-8.002,8.531l2.306,4.334h11.19L29.974,91.947H13.427v5.146h11.869l-9.292,8.802l3.867,3.59l8.816-8.26v10.832h5.154
	l0.271-16.249l12.951-12.934v10.901L51.945,95.808z"/>
</svg>
