<?xml version="1.0" encoding="utf-8"?>
<!-- Generator: Adobe Illustrator 15.0.0, SVG Export Plug-In  -->
<!DOCTYPE svg PUBLIC "-//W3C//DTD SVG 1.1//EN" "http://www.w3.org/Graphics/SVG/1.1/DTD/svg11.dtd" [
	<!ENTITY ns_flows "http://ns.adobe.com/Flows/1.0/">
]>
<svg version="1.1"
	 xmlns="http://www.w3.org/2000/svg" xmlns:xlink="http://www.w3.org/1999/xlink" xmlns:a="http://ns.adobe.com/AdobeSVGViewerExtensions/3.0/"
	 x="0px" y="0px" width="45px" height="40px" viewBox="-2.5 -1.5 45 40" enable-background="new -2.5 -1.5 45 40"
	 xml:space="preserve">
<defs>
</defs>
<path fill-rule="evenodd" clip-rule="evenodd" fill="none" stroke="#4C4145" stroke-width="3" stroke-miterlimit="10" d="M20,29.154
	c-2.452,0-4.787-0.365-6.928-1.012c0.008,0.035,0.006,0.074,0.013,0.11c-0.683-0.244-1.445-0.396-2.263-0.396
	c-0.832,0-1.604,0.156-2.294,0.408l-1.563,0.889c-0.308,0.263-0.537,0.567-0.731,0.884L5.82,31.459
	c0.023,0.768,0.393,1.472,1.008,2.044c-0.99-0.391-1.78-1.131-2.306-2.044c0,0-0.408-0.302-0.584-1.841
	c-0.256-2.236,0-7.574,0-7.574C2.423,20.054,1.5,17.782,1.5,15.327C1.5,7.69,9.783,1.5,20,1.5c10.217,0,18.5,6.19,18.5,13.827
	S30.217,29.154,20,29.154z"/>
</svg>
