<?xml version="1.0" encoding="utf-8"?>
<!-- Generator: Adobe Illustrator 15.0.0, SVG Export Plug-In  -->
<!DOCTYPE svg PUBLIC "-//W3C//DTD SVG 1.1//EN" "http://www.w3.org/Graphics/SVG/1.1/DTD/svg11.dtd" [
	<!ENTITY ns_flows "http://ns.adobe.com/Flows/1.0/">
]>
<svg version="1.1"
	 xmlns="http://www.w3.org/2000/svg" xmlns:xlink="http://www.w3.org/1999/xlink" xmlns:a="http://ns.adobe.com/AdobeSVGViewerExtensions/3.0/"
	 x="0px" y="0px" width="80px" height="16px" viewBox="-3.565 -2 80 16" enable-background="new -3.565 -2 80 16"
	 xml:space="preserve">
<defs>
</defs>
<g>
	<g>
		<path fill-rule="evenodd" clip-rule="evenodd" fill="#DBDEE1" d="M8.994,4.511L7.391,4.51L5.973,0l-1.41,4.51H3.749H0l3.679,2.825
			l0.068-0.218l0,0.271L3.679,7.335l-1.456,4.653l3.765-2.882L5.846,8.998h0.149h0.135L5.988,9.106l3.753,2.884L8.283,7.35
			l-0.04,0.031l0-0.155L8.283,7.35l3.709-2.838H8.994z M7.494,6.89l0,0.612v0.08L8.197,9.7L6.266,8.249H5.664L3.747,9.677
			l0.749-2.254l0-0.501L2.249,5.234h2.977l0.021-0.062l0-0.663h0.22l0.506-1.518L6.476,4.51h0.269l0,0.724h2.975L7.494,6.89z
			 M5.246,5.256V5.234H5.226L5.217,5.256H5.246z M19.083,5.26V5.236h-0.021L19.054,5.26H19.083z M22.83,4.513h-1.602l-1.418-4.511
			l-1.411,4.51h-0.815l-3.747-0.001l3.679,2.825l0.068-0.215l0,0.267l-0.067-0.052L16.06,11.99l3.764-2.88L19.682,9h0.149h0.137
			l-0.144,0.11l3.754,2.882l-1.459-4.64l-0.04,0.029l0-0.155l0.04,0.126l3.709-2.839H22.83z M21.33,6.891v0.613v0.078l0.702,2.12
			l-1.93-1.449H19.5l-1.917,1.425l0.75-2.251l0-0.502l-2.249-1.688h2.977l0.021-0.062V4.512l0.22,0.001l0.507-1.521l0.502,1.521
			h0.271l-0.001,0.723l2.974,0L21.33,6.891z M38.511,4.516l-1.604-0.001L35.49,0.004l-1.411,4.511h-0.815l-3.747-0.002l3.679,2.826
			l0.068-0.215l0,0.268l-0.067-0.053l-1.455,4.656l3.764-2.883l-0.143-0.11h0.149h0.137l-0.144,0.11l3.753,2.884l-1.457-4.641
			l-0.04,0.03V7.229l0.04,0.127l3.707-2.838L38.511,4.516z M37.011,6.895v0.613v0.078l0.703,2.118l-1.932-1.45H35.18L33.263,9.68
			l0.75-2.251l0-0.502l-2.248-1.689h2.977l0.021-0.061V4.515h0.22l0.506-1.519l0.503,1.519h0.27l-0.001,0.724l2.975,0.001
			L37.011,6.895z M34.763,5.262V5.238h-0.021l-0.008,0.024H34.763z M54.19,4.519l-1.603-0.001L51.17,0.006l-1.41,4.511h-0.816
			h-3.745l3.679,2.824l0.066-0.216v0.269l-0.066-0.053l-1.455,4.657l3.764-2.884l-0.143-0.109h0.148h0.138l-0.144,0.109l3.754,2.884
			L53.48,7.357l-0.04,0.03V7.23l0.04,0.127l3.708-2.839H54.19z M52.691,6.897v0.615V7.59l0.703,2.116l-1.933-1.447H50.86
			l-1.918,1.423l0.751-2.251v-0.5l-2.247-1.689h2.977l0.02-0.062V4.517h0.222l0.506-1.518l0.502,1.519h0.27v0.724l2.975,0.001
			L52.691,6.897z M50.442,5.266V5.242h-0.02l-0.007,0.024H50.442z M66.123,5.268V5.244h-0.019l-0.009,0.024H66.123z M69.122,7.391
			V7.233l0.039,0.126l3.708-2.838l-2.998,0H68.27L66.852,0.01L65.44,4.52h-0.814l-3.747-0.001l3.681,2.826l0.066-0.216v0.268
			L64.56,7.345L63.102,12l3.764-2.882l-0.142-0.11h0.148h0.137l-0.144,0.11L70.62,12l-1.459-4.641L69.122,7.391z M67.142,8.261h-0.6
			l-1.917,1.424l0.748-2.251V6.933l-2.246-1.689h2.978l0.019-0.062V4.52h0.222l0.507-1.519l0.502,1.52h0.269v0.723l2.976,0.001
			l-2.227,1.656v0.612v0.079l0.703,2.118L67.142,8.261z"/>
	</g>
</g>
</svg>
