<?xml version="1.0" encoding="utf-8"?>
<!-- Generator: Adobe Illustrator 15.0.0, SVG Export Plug-In  -->
<!DOCTYPE svg PUBLIC "-//W3C//DTD SVG 1.1//EN" "http://www.w3.org/Graphics/SVG/1.1/DTD/svg11.dtd" [
	<!ENTITY ns_flows "http://ns.adobe.com/Flows/1.0/">
]>
<svg version="1.1"
	 xmlns="http://www.w3.org/2000/svg" xmlns:xlink="http://www.w3.org/1999/xlink" xmlns:a="http://ns.adobe.com/AdobeSVGViewerExtensions/3.0/"
	 x="0px" y="0px" width="95px" height="20px" viewBox="-2 -4 95 20" enable-background="new -2 -4 95 20" xml:space="preserve">
<defs>
</defs>
<g>
	<g>
		<path fill-rule="evenodd" clip-rule="evenodd" fill="#4C4145" d="M9.75,4.891H8.013L6.475,0L4.946,4.891H4.063H0l3.989,3.063
			l0.073-0.234V8.01L3.989,7.953L2.412,13l4.08-3.125L6.337,9.756H6.5h0.147L6.492,9.875L10.563,13L8.98,7.969L8.938,8.002v-0.17
			L8.98,7.969L13,4.891H9.75z M8.125,7.471v0.664V8.22l0.762,2.297L6.793,8.945H6.141l-2.079,1.546L4.875,8.05V7.506l-2.438-1.83
			h3.228l0.022-0.068V4.891h0.239l0.548-1.647l0.546,1.647h0.292v0.786h3.225L8.125,7.471z M5.688,5.702V5.676H5.665L5.656,5.702
			H5.688z M23.688,5.702V5.676h-0.022l-0.009,0.025H23.688z M27.75,4.891h-1.738L24.475,0l-1.528,4.891h-0.884H18l3.989,3.063
			l0.073-0.234V8.01l-0.073-0.057L20.412,13l4.08-3.125l-0.155-0.119H24.5h0.147l-0.155,0.119L28.563,13L26.98,7.969l-0.043,0.033
			v-0.17l0.043,0.137L31,4.891H27.75z M26.125,7.471v0.664V8.22l0.762,2.297l-2.094-1.571h-0.652l-2.079,1.546l0.813-2.441V7.506
			l-2.438-1.83h3.228l0.022-0.068V4.891h0.239l0.548-1.647l0.546,1.647h0.292v0.786h3.225L26.125,7.471z M47.75,4.891h-1.738
			L44.475,0l-1.528,4.891h-0.884H38l3.989,3.063l0.074-0.234V8.01l-0.074-0.057L40.412,13l4.08-3.125l-0.155-0.119H44.5h0.147
			l-0.155,0.119L48.563,13L46.98,7.969l-0.043,0.033v-0.17l0.043,0.137L51,4.891H47.75z M46.125,7.471v0.664V8.22l0.762,2.297
			l-2.094-1.571h-0.652l-2.079,1.546l0.813-2.441V7.506l-2.438-1.83h3.228l0.022-0.068V4.891h0.239l0.548-1.647l0.546,1.647h0.292
			v0.786h3.225L46.125,7.471z M43.688,5.702V5.676h-0.022l-0.009,0.025H43.688z M63.688,5.702V5.676h-0.022l-0.009,0.025H63.688z
			 M67.75,4.891h-1.737L64.475,0l-1.528,4.891h-0.884H58l3.988,3.063l0.074-0.234V8.01l-0.074-0.057L60.412,13l4.08-3.125
			l-0.154-0.119H64.5h0.146l-0.154,0.119L68.563,13L66.98,7.969l-0.043,0.033v-0.17l0.043,0.137L71,4.891H67.75z M66.125,7.471
			v0.664V8.22l0.762,2.297l-2.094-1.571h-0.652l-2.078,1.546l0.813-2.441V7.506l-2.438-1.83h3.228l0.022-0.068V4.891h0.238
			l0.549-1.647l0.546,1.647h0.292v0.786h3.225L66.125,7.471z M86.938,8.002v-0.17l0.043,0.137L91,4.891h-3.25h-1.737L84.475,0
			l-1.528,4.891h-0.884H78l3.989,3.063l0.073-0.234V8.01l-0.073-0.057L80.412,13l4.08-3.125l-0.154-0.119H84.5h0.146l-0.154,0.119
			L88.563,13L86.98,7.969L86.938,8.002z M84.793,8.945h-0.652l-2.078,1.546l0.813-2.441V7.506l-2.438-1.83h3.228l0.022-0.068V4.891
			h0.238l0.549-1.647l0.546,1.647h0.292v0.786h3.225l-2.412,1.794v0.664V8.22l0.762,2.297L84.793,8.945z M83.688,5.702V5.676h-0.022
			l-0.009,0.025H83.688z"/>
	</g>
</g>
</svg>
