<?xml version="1.0" encoding="utf-8"?>
<!-- Generator: Adobe Illustrator 15.0.0, SVG Export Plug-In  -->
<!DOCTYPE svg PUBLIC "-//W3C//DTD SVG 1.1//EN" "http://www.w3.org/Graphics/SVG/1.1/DTD/svg11.dtd" [
	<!ENTITY ns_flows "http://ns.adobe.com/Flows/1.0/">
]>
<svg version="1.1"
	 xmlns="http://www.w3.org/2000/svg" xmlns:xlink="http://www.w3.org/1999/xlink" xmlns:a="http://ns.adobe.com/AdobeSVGViewerExtensions/3.0/"
	 x="0px" y="0px" width="1170px" height="380px" viewBox="-14.5 -1.5 1170 380" enable-background="new -14.5 -1.5 1170 380"
	 xml:space="preserve">
<defs>
</defs>
<g>
	<g>
		<path fill="none" stroke="#DBDEE1" stroke-miterlimit="10" d="M1133.5,323c0-5.572,2.77-10.489,7-13.477v-7.047
			c-4.23-2.987-7-7.904-7-13.477s2.77-10.489,7-13.477v-7.047c-4.23-2.987-7-7.904-7-13.477s2.77-10.489,7-13.477v-7.047
			c-4.23-2.987-7-7.904-7-13.477s2.77-10.489,7-13.477v-7.047c-4.23-2.987-7-7.904-7-13.477s2.77-10.489,7-13.477v-5.047
			c-4.23-2.987-7-7.904-7-13.477s2.77-10.489,7-13.477v-7.046c-4.23-2.988-7-7.905-7-13.477s2.77-10.489,7-13.477v-7.046
			c-4.23-2.988-7-7.905-7-13.477s2.77-10.489,7-13.477v-7.046c-4.23-2.988-7-7.905-7-13.477s2.77-10.489,7-13.477V36.5
			c-19.883,0-36-16.118-36-36H36.5c0,19.882-16.118,36-36,36v3.772c3.665,3.026,6,7.604,6,12.728s-2.335,9.702-6,12.728v8.544
			c3.665,3.026,6,7.604,6,12.728s-2.335,9.702-6,12.728v8.544c3.665,3.026,6,7.604,6,12.728s-2.335,9.702-6,12.728v8.544
			c3.665,3.026,6,7.604,6,12.728c0,5.124-2.335,9.702-6,12.728v6.544c3.665,3.026,6,7.604,6,12.728c0,5.123-2.335,9.701-6,12.729
			v8.543c3.665,3.027,6,7.605,6,12.729s-2.335,9.701-6,12.729v8.543c3.665,3.027,6,7.605,6,12.729s-2.335,9.701-6,12.729v8.543
			c3.665,3.026,6,7.604,6,12.729c0,5.123-2.335,9.701-6,12.729v8.543c3.665,3.027,6,7.605,6,12.729s-2.335,9.701-6,12.729v4.771
			c19.882,0,36,16.118,36,36h1068c0-19.882,16.117-36,36-36v-4.023C1136.27,333.489,1133.5,328.572,1133.5,323z"/>
	</g>
</g>
</svg>
