<?xml version="1.0" encoding="utf-8"?>
<!-- Generator: Adobe Illustrator 15.0.0, SVG Export Plug-In  -->
<!DOCTYPE svg PUBLIC "-//W3C//DTD SVG 1.1//EN" "http://www.w3.org/Graphics/SVG/1.1/DTD/svg11.dtd" [
	<!ENTITY ns_flows "http://ns.adobe.com/Flows/1.0/">
]>
<svg version="1.1"
	 xmlns="http://www.w3.org/2000/svg" xmlns:xlink="http://www.w3.org/1999/xlink" xmlns:a="http://ns.adobe.com/AdobeSVGViewerExtensions/3.0/"
	 x="0px" y="0px" width="140px" height="140px" viewBox="-10 -9.969 140 140" enable-background="new -10 -9.969 140 140"
	 xml:space="preserve">
<defs>
</defs>
<g>
	<g>
		<path fill="#FFF7E0" d="M88.879,99.479L64.875,86.195c8.922-7.011,11.345-20.792,11.345-28.517V41.595
			c0-10.648-14.163-22.51-28.389-22.51c-14.223,0-28.761,11.862-28.761,22.51v16.083c0,7.026,2.975,21.239,11.989,28.458
			L6.434,99.479c0,0-6.434,2.863-6.434,6.435v9.651C0,119.117,2.885,122,6.434,122h82.445c3.552,0,6.438-2.883,6.438-6.436v-9.651
			C95.316,102.126,88.879,99.479,88.879,99.479z M87.691,114.383H7.625v-6.811c0.547-0.398,1.311-0.859,1.914-1.135
			c0.179-0.082,0.357-0.168,0.529-0.264l24.625-13.342c2.246-1.217,3.735-3.475,3.961-6.016c0.227-2.54-0.834-5.028-2.825-6.624
			c-6.393-5.122-9.133-16.462-9.133-22.514V41.595c0-5.471,10.324-14.893,21.136-14.893c11.013,0,20.764,9.292,20.764,14.893v16.083
			c0,5.966-1.854,17.359-8.433,22.529c-2.014,1.585-3.098,4.073-2.886,6.625c0.216,2.551,1.698,4.824,3.946,6.052l24.004,13.282
			c0.212,0.115,0.48,0.242,0.703,0.338c0.563,0.238,1.255,0.637,1.762,0.986V114.383z M115.563,80.512L91.202,67.23
			c8.921-7.012,11.702-20.793,11.702-28.518V22.629C102.904,11.98,88.384,0,74.157,0c-9.244,0-18.697,5.021-24.2,11.452
			c3.139,0.193,6.597,0.197,9.587,1.149c4.017-3.125,9.1-4.984,14.613-4.984c11.013,0,21.122,9.411,21.122,15.012v16.083
			c0,5.966-2.213,17.359-8.791,22.53c-2.014,1.584-3.098,4.072-2.885,6.624c0.216,2.552,1.697,4.824,3.946,6.052L111.91,87.2
			c0.213,0.115,0.48,0.242,0.703,0.338c0.563,0.238,1.256,0.637,1.762,0.985v6.773H98.983c2.323,1.752,3.026,4.26,3.928,7.618
			h12.651c3.553,0,6.438-2.883,6.438-6.435v-9.533C122,83.16,115.563,80.512,115.563,80.512z"/>
	</g>
</g>
</svg>
