<?xml version="1.0" encoding="utf-8"?>
<!-- Generator: Adobe Illustrator 15.0.0, SVG Export Plug-In  -->
<!DOCTYPE svg PUBLIC "-//W3C//DTD SVG 1.1//EN" "http://www.w3.org/Graphics/SVG/1.1/DTD/svg11.dtd" [
	<!ENTITY ns_flows "http://ns.adobe.com/Flows/1.0/">
]>
<svg version="1.1"
	 xmlns="http://www.w3.org/2000/svg" xmlns:xlink="http://www.w3.org/1999/xlink" xmlns:a="http://ns.adobe.com/AdobeSVGViewerExtensions/3.0/"
	 x="0px" y="0px" width="140px" height="140px" viewBox="-9.929 -9.948 140 140" enable-background="new -9.929 -9.948 140 140"
	 xml:space="preserve">
<defs>
</defs>
<g>
	<g>
		<path fill="#FFF7E0" d="M121.357,51.147l-12.197-18.31l6.07-21.304c0.379-1.337,0.008-2.774-0.975-3.753
			c-0.979-0.983-2.403-1.348-3.742-0.957l-21.188,6.21L71.017,0.654c-1.154-0.778-2.63-0.872-3.854-0.231
			c-1.231,0.633-2.021,1.891-2.065,3.276l-0.656,22.153L47.055,39.505c-1.09,0.856-1.628,2.241-1.409,3.611s1.164,2.514,2.47,2.982
			l16.313,5.87c-0.111,0.088-0.227,0.167-0.329,0.27L1.112,115.472c-1.483,1.489-1.483,3.902,0,5.392
			c0.741,0.744,1.713,1.116,2.685,1.116s1.943-0.372,2.686-1.116L69.47,57.629c0.245-0.246,0.436-0.524,0.6-0.812l6.384,17.578
			c0.475,1.304,1.617,2.245,2.985,2.461c0.193,0.03,0.39,0.044,0.583,0.044c1.164,0,2.276-0.539,3.004-1.481l13.503-17.532
			l21.825-0.782c1.384-0.048,2.63-0.849,3.257-2.088C122.233,53.78,122.137,52.294,121.357,51.147z M94.481,50.333
			c-1.128,0.037-2.181,0.581-2.871,1.478L81.23,65.285l-5.812-16.002c-0.386-1.064-1.224-1.899-2.289-2.283l-15.973-5.748
			L70.523,30.76c0.89-0.7,1.42-1.757,1.458-2.889l0.504-17.03l14.074,9.517c0.938,0.633,2.11,0.812,3.186,0.499l16.289-4.777
			l-4.67,16.378c-0.308,1.091-0.118,2.26,0.516,3.198l9.561,14.073L94.481,50.333z"/>
	</g>
</g>
</svg>
