<?xml version="1.0" encoding="utf-8"?>
<!-- Generator: Adobe Illustrator 15.0.0, SVG Export Plug-In  -->
<!DOCTYPE svg PUBLIC "-//W3C//DTD SVG 1.1//EN" "http://www.w3.org/Graphics/SVG/1.1/DTD/svg11.dtd" [
	<!ENTITY ns_flows "http://ns.adobe.com/Flows/1.0/">
]>
<svg version="1.1"
	 xmlns="http://www.w3.org/2000/svg" xmlns:xlink="http://www.w3.org/1999/xlink" xmlns:a="http://ns.adobe.com/AdobeSVGViewerExtensions/3.0/"
	 x="0px" y="0px" width="20px" height="20px" viewBox="49 -1 20 20" enable-background="new 49 -1 20 20" xml:space="preserve">
<defs>
</defs>
<g>
	<g>
		<path fill-rule="evenodd" clip-rule="evenodd" fill="#F7D16D" d="M12.964,6.396h-2.311L8.609,0L6.577,6.396H5.401H0L5.304,10.4
			l0.097-0.307v0.381L5.304,10.4L3.207,17l5.425-4.087l-0.206-0.155h0.216h0.196l-0.206,0.155L14.044,17l-2.104-6.579l-0.057,0.044
			v-0.223l0.057,0.179l5.345-4.025H12.964z M36.898,6.396h-2.311L32.543,0l-2.032,6.396h-1.175h-5.402l5.304,4.005l0.098-0.307
			v0.381L29.238,10.4L27.141,17l5.425-4.087l-0.206-0.155h0.216h0.196l-0.206,0.155L37.979,17l-2.104-6.579l-0.057,0.044v-0.223
			l0.057,0.179l5.345-4.025H36.898z M63.492,6.396h-2.311L59.136,0l-2.032,6.396h-1.175h-5.402l5.304,4.005l0.098-0.307v0.381
			L55.832,10.4L53.735,17l5.425-4.087l-0.206-0.155h0.216h0.196l-0.207,0.155L64.572,17l-2.104-6.579l-0.058,0.044v-0.223
			l0.058,0.179l5.344-4.025H63.492z M90.085,6.396h-2.31L85.73,0l-2.033,6.396h-1.175h-5.401l5.304,4.005l0.098-0.307v0.381
			L82.425,10.4L80.328,17l5.426-4.087l-0.207-0.155h0.217h0.195l-0.205,0.155L91.166,17l-2.104-6.579l-0.058,0.044v-0.223
			l0.058,0.179l5.344-4.025H90.085z M115.598,10.465v-0.223l0.058,0.179L121,6.396h-4.322h-2.31L112.323,0l-2.032,6.396h-1.175
			h-5.402l5.305,4.005l0.098-0.307v0.381l-0.098-0.074l-2.097,6.6l5.425-4.087l-0.206-0.155h0.217h0.195l-0.206,0.155L117.759,17
			l-2.104-6.579L115.598,10.465z"/>
	</g>
</g>
</svg>
