<?xml version="1.0" encoding="utf-8"?>
<!-- Generator: Adobe Illustrator 15.0.0, SVG Export Plug-In  -->
<!DOCTYPE svg PUBLIC "-//W3C//DTD SVG 1.1//EN" "http://www.w3.org/Graphics/SVG/1.1/DTD/svg11.dtd" [
	<!ENTITY ns_flows "http://ns.adobe.com/Flows/1.0/">
]>
<svg version="1.1"
	 xmlns="http://www.w3.org/2000/svg" xmlns:xlink="http://www.w3.org/1999/xlink" xmlns:a="http://ns.adobe.com/AdobeSVGViewerExtensions/3.0/"
	 x="0px" y="0px" width="20px" height="20px" viewBox="49 -1 20 20" enable-background="new 49 -1 20 20" xml:space="preserve">
<defs>
</defs>
<g>
	<g>
		<path fill-rule="evenodd" clip-rule="evenodd" fill="#4B3F44" d="M7.563,7.456V7.423h-0.03L7.521,7.456H7.563z M12.964,6.396
			h-2.311L8.609,0L6.577,6.396H5.401H0L5.304,10.4l0.097-0.307v0.381L5.304,10.4L3.207,17l5.425-4.087l-0.206-0.155h0.216h0.196
			l-0.206,0.155L14.044,17l-2.104-6.579l-0.057,0.044v-0.223l0.057,0.179l5.345-4.025H12.964z M10.803,9.769v0.868v0.112
			l1.013,3.003l-2.784-2.055H8.166l-2.764,2.021l1.081-3.191V9.815L3.241,7.423h4.291l0.03-0.089V6.396H7.88l0.729-2.154
			l0.727,2.154h0.388v1.027h4.288L10.803,9.769z M31.497,7.456V7.423h-0.03l-0.011,0.033H31.497z M36.898,6.396h-2.311L32.543,0
			l-2.032,6.396h-1.175h-5.402l5.304,4.005l0.098-0.307v0.381L29.238,10.4L27.141,17l5.425-4.087l-0.206-0.155h0.216h0.196
			l-0.206,0.155L37.979,17l-2.104-6.579l-0.057,0.044v-0.223l0.057,0.179l5.345-4.025H36.898z M34.737,9.769v0.868v0.112
			l1.013,3.003l-2.784-2.055H32.1l-2.764,2.021l1.08-3.191V9.815l-3.241-2.392h4.291l0.03-0.089V6.396h0.317l0.729-2.154
			l0.727,2.154h0.388v1.027h4.288L34.737,9.769z M58.09,7.456V7.423h-0.03l-0.011,0.033H58.09z M63.492,6.396h-2.311L59.137,0
			l-2.033,6.396h-1.175h-5.402l5.304,4.005l0.098-0.307v0.381L55.832,10.4L53.735,17l5.425-4.087l-0.206-0.155h0.216h0.196
			l-0.206,0.155L64.572,17l-2.104-6.579l-0.058,0.044v-0.223l0.058,0.179l5.344-4.025H63.492z M61.331,9.769v0.868v0.112
			l1.013,3.003l-2.783-2.055h-0.867l-2.764,2.021l1.08-3.191V9.815l-3.241-2.392h4.291l0.03-0.089V6.396h0.318l0.729-2.154
			l0.727,2.154h0.387v1.027h4.288L61.331,9.769z M90.085,6.396h-2.31L85.73,0l-2.033,6.396h-1.175h-5.401l5.304,4.005l0.098-0.307
			v0.381L82.425,10.4L80.328,17l5.426-4.087l-0.207-0.155h0.217h0.195l-0.205,0.155L91.166,17l-2.104-6.579l-0.058,0.044v-0.223
			l0.058,0.179l5.344-4.025H90.085z M87.924,9.769v0.868v0.112l1.014,3.003l-2.784-2.055h-0.866l-2.765,2.021l1.08-3.191V9.815
			l-3.241-2.392h4.292l0.03-0.089V6.396h0.317l0.729-2.154l0.726,2.154h0.388v1.027h4.288L87.924,9.769z M84.684,7.456V7.423h-0.03
			l-0.011,0.033H84.684z M115.598,10.465v-0.223l0.058,0.179L121,6.396h-4.322h-2.31L112.323,0l-2.032,6.396h-1.175h-5.402
			l5.305,4.005l0.098-0.307v0.381l-0.098-0.074l-2.097,6.6l5.425-4.087l-0.206-0.155h0.217h0.195l-0.206,0.155L117.759,17
			l-2.104-6.579L115.598,10.465z M112.747,11.697h-0.867l-2.764,2.021l1.08-3.191V9.815l-3.241-2.392h4.291l0.031-0.089V6.396h0.316
			l0.729-2.154l0.727,2.154h0.388v1.027h4.287l-3.207,2.346v0.868v0.112l1.013,3.003L112.747,11.697z M111.277,7.456V7.423h-0.031
			l-0.011,0.033H111.277z"/>
	</g>
</g>
</svg>
