<?xml version="1.0" encoding="utf-8"?>
<!-- Generator: Adobe Illustrator 15.0.0, SVG Export Plug-In  -->
<!DOCTYPE svg PUBLIC "-//W3C//DTD SVG 1.1//EN" "http://www.w3.org/Graphics/SVG/1.1/DTD/svg11.dtd" [
	<!ENTITY ns_flows "http://ns.adobe.com/Flows/1.0/">
]>
<svg version="1.1"
	 xmlns="http://www.w3.org/2000/svg" xmlns:xlink="http://www.w3.org/1999/xlink" xmlns:a="http://ns.adobe.com/AdobeSVGViewerExtensions/3.0/"
	 x="0px" y="0px" width="120px" height="70px" viewBox="-7.736 -20.91 120 70" enable-background="new -7.736 -20.91 120 70"
	 xml:space="preserve">
<defs>
</defs>
<g>
	<g>
		<path fill="#FFFFFF" d="M16.805,13.481c-0.028-3.204,2.559-4.762,2.677-4.833c-1.465-2.191-3.735-2.489-4.534-2.512
			c-1.906-0.206-3.756,1.169-4.727,1.169c-0.991,0-2.487-1.149-4.098-1.116C4.049,6.222,2.107,7.452,1.043,9.365
			c-2.197,3.897-0.558,9.625,1.546,12.775c1.052,1.544,2.283,3.268,3.893,3.207c1.576-0.066,2.164-1.03,4.064-1.03
			c1.884,0,2.436,1.03,4.079,0.989c1.689-0.025,2.754-1.551,3.771-3.106c1.216-1.766,1.705-3.511,1.724-3.602
			C20.082,18.588,16.839,17.317,16.805,13.481z M13.703,4.063C14.55,2.977,15.13,1.499,14.969,0c-1.226,0.055-2.76,0.87-3.643,1.932
			c-0.781,0.936-1.478,2.469-1.299,3.913C11.405,5.949,12.819,5.131,13.703,4.063z M32.884,11.901L28.73,25.125h2.144l1.148-3.885
			h4.191l1.206,3.885h2.201l-4.171-13.224H32.884z M32.386,19.611l1.072-3.452c0.279-1.099,0.484-1.929,0.612-2.492h0.039
			c0.317,1.308,0.536,2.139,0.65,2.492l1.091,3.452H32.386z M46.436,15.395c-1.403,0-2.448,0.568-3.138,1.707h-0.039l-0.116-1.512
			h-1.818c0.052,1.072,0.077,2.115,0.077,3.136v10.266h2.066v-5.004c0.538,0.903,1.425,1.353,2.657,1.353
			c1.142,0,2.098-0.419,2.868-1.256c0.86-0.94,1.29-2.223,1.29-3.844c0-1.451-0.368-2.622-1.1-3.515
			C48.45,15.838,47.534,15.395,46.436,15.395z M47.525,22.75c-0.434,0.614-1.039,0.922-1.817,0.922
			c-0.664,0-1.203-0.237-1.617-0.715c-0.414-0.479-0.622-1.064-0.622-1.757v-1.591c0-0.169,0.033-0.383,0.096-0.644
			c0.127-0.563,0.398-1.018,0.813-1.364c0.414-0.346,0.877-0.521,1.386-0.521c0.753,0,1.353,0.313,1.8,0.94
			c0.41,0.603,0.613,1.368,0.613,2.296C48.177,21.324,47.959,22.137,47.525,22.75z M57.135,15.395c-1.405,0-2.451,0.568-3.139,1.707
			h-0.039l-0.115-1.512h-1.817c0.05,1.072,0.076,2.115,0.076,3.136v10.266h2.067v-5.004c0.538,0.903,1.425,1.353,2.655,1.353
			c1.143,0,2.1-0.419,2.869-1.256c0.859-0.94,1.289-2.223,1.289-3.844c0-1.451-0.368-2.622-1.1-3.515
			C59.147,15.838,58.231,15.395,57.135,15.395z M58.223,22.75c-0.432,0.614-1.037,0.922-1.818,0.922
			c-0.664,0-1.201-0.24-1.617-0.715c-0.414-0.479-0.622-1.064-0.622-1.757v-1.591c0-0.169,0.034-0.383,0.097-0.644
			c0.129-0.563,0.398-1.018,0.813-1.364c0.415-0.346,0.878-0.521,1.389-0.521c0.752,0,1.352,0.313,1.798,0.94
			c0.408,0.603,0.612,1.368,0.612,2.296C58.874,21.324,58.656,22.137,58.223,22.75z M69.705,17.516
			c-0.907-0.366-1.531-0.707-1.876-1.021c-0.395-0.338-0.594-0.771-0.594-1.294c0-0.473,0.175-0.872,0.519-1.196
			c0.409-0.367,0.98-0.552,1.711-0.552c0.922,0,1.748,0.203,2.479,0.609l0.519-1.726c-0.776-0.418-1.755-0.627-2.929-0.627
			c-1.314,0-2.371,0.346-3.168,1.041c-0.797,0.692-1.195,1.58-1.195,2.665c0,1.661,1.129,2.925,3.389,3.787
			c0.83,0.314,1.422,0.655,1.779,1.022c0.356,0.365,0.536,0.815,0.536,1.353c0,0.601-0.218,1.082-0.651,1.44
			c-0.432,0.359-1.037,0.541-1.817,0.541c-1.083,0-2.08-0.275-2.985-0.825l-0.479,1.766c0.84,0.55,1.952,0.823,3.342,0.823
			c1.501,0,2.674-0.388,3.514-1.157c0.763-0.707,1.146-1.62,1.146-2.747c0-0.914-0.263-1.68-0.789-2.294
			C71.631,18.508,70.814,17.975,69.705,17.516z M77.516,13.211l-2.031,0.628v1.747h-1.355v1.59h1.355v4.807
			c0,1.203,0.23,2.061,0.689,2.569c0.461,0.511,1.1,0.767,1.915,0.767c0.663,0,1.2-0.077,1.607-0.234l-0.058-1.607
			c-0.242,0.065-0.549,0.098-0.918,0.098c-0.804,0-1.205-0.587-1.205-1.765v-4.63h2.278v-1.594h-2.278V13.211z M85.571,15.396
			c-1.417,0-2.542,0.471-3.378,1.412c-0.835,0.941-1.254,2.152-1.254,3.629c0,1.412,0.405,2.582,1.216,3.512
			c0.812,0.927,1.897,1.391,3.264,1.391c1.417,0,2.553-0.483,3.406-1.452c0.817-0.941,1.225-2.143,1.225-3.608
			c0-1.427-0.394-2.588-1.187-3.49C88.031,15.861,86.938,15.396,85.571,15.396z M87.339,22.6c-0.449,0.767-1.069,1.154-1.858,1.154
			c-0.807,0-1.431-0.379-1.878-1.137c-0.372-0.624-0.554-1.377-0.554-2.25c0-0.9,0.182-1.663,0.554-2.288
			c0.431-0.758,1.067-1.138,1.895-1.138c0.804,0,1.425,0.38,1.857,1.138c0.369,0.625,0.554,1.374,0.554,2.247
			C87.908,21.203,87.717,21.958,87.339,22.6z M96.252,15.394c-0.535,0-1.033,0.169-1.494,0.512c-0.47,0.379-0.813,0.883-1.032,1.511
			h-0.058l-0.076-1.825h-1.799c0.04,0.902,0.06,1.903,0.06,3.001v6.533h2.067v-5.003c0-0.759,0.17-1.386,0.516-1.884
			c0.396-0.563,0.957-0.844,1.684-0.844c0.229,0,0.447,0.02,0.652,0.059l-0.002-2.021C96.616,15.408,96.443,15.394,96.252,15.394z
			 M106.014,19.906c0-1.189-0.273-2.191-0.819-2.999c-0.688-1.02-1.704-1.528-3.045-1.528c-1.365,0-2.449,0.509-3.253,1.528
			c-0.768,0.956-1.148,2.153-1.148,3.591c0,1.463,0.412,2.631,1.232,3.5c0.824,0.867,1.957,1.302,3.398,1.302
			c1.2,0,2.239-0.194,3.119-0.588l-0.324-1.471c-0.752,0.303-1.59,0.452-2.508,0.452c-0.83,0-1.506-0.223-2.027-0.667
			c-0.576-0.498-0.877-1.217-0.899-2.161h6.2C105.99,20.605,106.014,20.286,106.014,19.906z M99.739,19.356
			c0.063-0.64,0.268-1.191,0.611-1.649c0.419-0.577,0.97-0.862,1.645-0.862c0.738,0,1.288,0.294,1.647,0.884
			c0.279,0.459,0.416,1,0.4,1.628H99.739z M31.127,5.262h2.06l0.592,1.908h1.08l-2.048-6.496h-1.259L29.51,7.17h1.053L31.127,5.262z
			 M31.833,2.765c0.137-0.539,0.238-0.948,0.3-1.224h0.019c0.157,0.643,0.262,1.051,0.32,1.224l0.536,1.697h-1.701L31.833,2.765z
			 M38.122,4.963c-0.146,0.45-0.254,0.845-0.33,1.185h-0.027c-0.087-0.378-0.198-0.774-0.329-1.185l-0.781-2.478h-1.091l1.674,4.684
			h0.988l1.73-4.684h-1.065L38.122,4.963z M43.547,6.629h0.028l0.076,0.54h0.913c-0.044-0.276-0.066-0.648-0.066-1.116V4.328
			c0-1.292-0.598-1.938-1.796-1.938c-0.621,0-1.145,0.135-1.57,0.404l0.206,0.684c0.347-0.23,0.744-0.346,1.194-0.346
			c0.633,0,0.949,0.309,0.949,0.924v0.088c-0.845-0.007-1.503,0.14-1.969,0.443c-0.468,0.302-0.7,0.738-0.7,1.311
			c0,0.378,0.118,0.697,0.356,0.954c0.264,0.281,0.613,0.423,1.045,0.423C42.789,7.275,43.235,7.06,43.547,6.629z M41.828,5.782
			c0-0.65,0.561-0.964,1.683-0.945v0.724l-0.019,0.183c-0.043,0.226-0.16,0.409-0.35,0.554c-0.189,0.145-0.398,0.217-0.622,0.217
			c-0.199,0-0.365-0.061-0.496-0.182C41.893,6.208,41.828,6.026,41.828,5.782z M46.266,7.169h1.015V2.485h-1.015V7.169z
			 M46.754,1.714c0.189,0,0.342-0.056,0.46-0.172c0.121-0.118,0.182-0.266,0.182-0.455c0-0.179-0.061-0.326-0.18-0.441
			c-0.12-0.115-0.266-0.174-0.441-0.174c-0.177,0-0.324,0.059-0.443,0.174c-0.118,0.115-0.179,0.263-0.179,0.443
			c0,0.18,0.06,0.33,0.175,0.449C46.443,1.655,46.584,1.714,46.754,1.714z M50.101,0.336h-1.015v6.833h1.015V0.336z M54.325,6.629
			h0.026l0.073,0.54h0.913c-0.043-0.276-0.066-0.648-0.064-1.116V4.328c0-1.292-0.598-1.938-1.797-1.938
			c-0.62,0-1.143,0.135-1.569,0.404l0.207,0.684c0.345-0.23,0.742-0.346,1.194-0.346c0.633,0,0.949,0.309,0.949,0.924v0.088
			c-0.847-0.007-1.502,0.14-1.969,0.443c-0.467,0.302-0.701,0.738-0.701,1.311c0,0.378,0.12,0.697,0.358,0.954
			c0.264,0.281,0.612,0.423,1.044,0.423C53.566,7.275,54.01,7.06,54.325,6.629z M52.603,5.782c0-0.65,0.56-0.964,1.683-0.945v0.724
			l-0.02,0.183c-0.043,0.226-0.16,0.409-0.35,0.554c-0.191,0.145-0.398,0.217-0.621,0.217c-0.2,0-0.365-0.061-0.497-0.182
			C52.667,6.208,52.603,6.026,52.603,5.782z M59.521,2.389c-0.676,0-1.165,0.262-1.466,0.781V0.338h-1.017v5.57
			c0,0.462-0.013,0.885-0.036,1.263h0.866l0.056-0.723h0.019C58.25,7,58.729,7.275,59.381,7.275c0.548,0,1.007-0.209,1.384-0.626
			c0.425-0.47,0.638-1.099,0.638-1.889c0-0.713-0.174-1.288-0.525-1.72C60.527,2.606,60.075,2.389,59.521,2.389z M60.05,6.002
			c-0.214,0.297-0.511,0.443-0.894,0.443c-0.314,0-0.576-0.116-0.787-0.346c-0.21-0.23-0.313-0.506-0.313-0.829V4.451
			c0-0.109,0.012-0.219,0.038-0.327c0.067-0.277,0.202-0.498,0.403-0.666c0.199-0.166,0.425-0.25,0.676-0.25
			c0.376,0,0.674,0.158,0.894,0.473c0.202,0.29,0.304,0.661,0.304,1.118C60.371,5.307,60.263,5.708,60.05,6.002z M62.907,7.169
			h1.017V0.336h-1.017V7.169z M67.701,7.257c0.59,0,1.1-0.097,1.531-0.288l-0.158-0.725c-0.369,0.149-0.779,0.223-1.23,0.223
			c-0.408,0-0.738-0.109-0.998-0.329c-0.281-0.244-0.428-0.596-0.439-1.06h3.046c0.023-0.128,0.038-0.284,0.038-0.472
			c0-0.584-0.136-1.077-0.406-1.474c-0.341-0.5-0.838-0.751-1.496-0.751c-0.67,0-1.203,0.251-1.597,0.751
			c-0.379,0.469-0.565,1.058-0.565,1.764c0,0.72,0.201,1.293,0.605,1.72C66.437,7.043,66.992,7.257,67.701,7.257z M66.704,3.526
			c0.21-0.283,0.478-0.424,0.811-0.424c0.364,0,0.632,0.146,0.81,0.435c0.138,0.224,0.201,0.491,0.197,0.799h-2.115
			C66.438,4.021,66.536,3.753,66.704,3.526z M77.284,6.563c0.401-0.463,0.603-1.053,0.603-1.774c0-0.699-0.194-1.271-0.582-1.714
			c-0.408-0.456-0.947-0.684-1.619-0.684c-0.695,0-1.247,0.231-1.658,0.692c-0.412,0.463-0.617,1.058-0.617,1.783
			c0,0.694,0.199,1.27,0.598,1.725c0.397,0.458,0.932,0.685,1.602,0.685C76.305,7.275,76.863,7.038,77.284,6.563z M74.719,5.938
			c-0.181-0.308-0.273-0.675-0.273-1.105c0-0.441,0.09-0.816,0.273-1.125c0.213-0.371,0.523-0.556,0.932-0.556
			c0.395,0,0.696,0.185,0.91,0.556c0.182,0.309,0.271,0.676,0.271,1.105c0,0.43-0.093,0.801-0.283,1.116
			c-0.217,0.377-0.521,0.566-0.908,0.566C75.245,6.496,74.939,6.31,74.719,5.938z M82.344,4.48v2.69h1.016V4.364
			c0-0.688-0.175-1.205-0.526-1.551c-0.282-0.283-0.638-0.426-1.064-0.426c-0.338,0-0.645,0.087-0.92,0.261
			c-0.231,0.147-0.408,0.334-0.526,0.558h-0.028l-0.047-0.724h-0.894c0.024,0.483,0.037,0.929,0.037,1.341v3.345h1.017V4.384
			c0-0.308,0.093-0.577,0.282-0.805s0.431-0.342,0.732-0.342C82.037,3.237,82.344,3.65,82.344,4.48z M87.891,5.627
			c0,0.592,0.113,1.013,0.34,1.264c0.227,0.25,0.538,0.375,0.938,0.375c0.325,0,0.589-0.038,0.79-0.116L89.93,6.359
			c-0.117,0.033-0.268,0.048-0.449,0.048c-0.396,0-0.592-0.289-0.592-0.866V3.266h1.117V2.484h-1.119V1.32l-0.996,0.308v0.858
			h-0.668v0.779h0.668V5.627z M92.422,4.345c0-0.147,0.016-0.271,0.047-0.375c0.176-0.489,0.5-0.732,0.969-0.732
			c0.613,0,0.922,0.42,0.922,1.262V7.17h1.016V4.385c0-0.692-0.174-1.217-0.517-1.57c-0.278-0.283-0.623-0.424-1.046-0.424
			c-0.592,0-1.053,0.253-1.373,0.761h-0.018V0.338h-1.016v6.831h1.016V4.345z M100.347,6.969l-0.161-0.725
			c-0.365,0.149-0.777,0.223-1.229,0.223c-0.407,0-0.739-0.109-0.996-0.329c-0.281-0.244-0.43-0.596-0.44-1.06h3.046
			c0.025-0.128,0.037-0.284,0.037-0.472c0-0.584-0.137-1.077-0.408-1.474c-0.338-0.5-0.837-0.751-1.497-0.751
			c-0.669,0-1.202,0.251-1.597,0.751c-0.377,0.469-0.564,1.058-0.564,1.764c0,0.72,0.203,1.293,0.606,1.72
			c0.405,0.427,0.963,0.641,1.669,0.641C99.402,7.257,99.915,7.16,100.347,6.969z M97.82,3.526c0.207-0.283,0.477-0.424,0.809-0.424
			c0.363,0,0.633,0.146,0.81,0.435c0.136,0.224,0.203,0.491,0.196,0.799h-2.114C97.552,4.021,97.65,3.753,97.82,3.526z"/>
	</g>
</g>
</svg>
