<?xml version="1.0" encoding="utf-8"?>
<!-- Generator: Adobe Illustrator 15.0.0, SVG Export Plug-In  -->
<!DOCTYPE svg PUBLIC "-//W3C//DTD SVG 1.1//EN" "http://www.w3.org/Graphics/SVG/1.1/DTD/svg11.dtd" [
	<!ENTITY ns_flows "http://ns.adobe.com/Flows/1.0/">
]>
<svg version="1.1"
	 xmlns="http://www.w3.org/2000/svg" xmlns:xlink="http://www.w3.org/1999/xlink" xmlns:a="http://ns.adobe.com/AdobeSVGViewerExtensions/3.0/"
	 x="0px" y="0px" width="120px" height="70px" viewBox="-7.115 -21.593 120 70" enable-background="new -7.115 -21.593 120 70"
	 xml:space="preserve">
<defs>
</defs>
<g id="PLAY_1_">
	<defs>
		<path id="SVGID_1_" d="M17.053,9.851l-5.426-3.136c0,0-9.885-5.711-10.466-6.043C0.581,0.335,0,0.539,0,1.241
			c0,1.168,0,12.19,0,12.19s0,11.912,0,12.425c0,0.532,0.416,0.761,0.919,0.462c0.504-0.285,10.708-6.176,10.708-6.176l5.425-3.13
			c0,0,4.605-2.661,5.217-3.016c0.61-0.35,0.555-0.842,0.037-1.116C21.788,12.606,17.053,9.851,17.053,9.851z"/>
	</defs>
	<clipPath id="SVGID_2_">
		<use xlink:href="#SVGID_1_"  overflow="visible"/>
	</clipPath>
	<linearGradient id="SVGID_3_" gradientUnits="userSpaceOnUse" x1="6.7217" y1="0.0986" x2="6.7217" y2="26.7573">
		<stop  offset="0" style="stop-color:#4D7CAD"/>
		<stop  offset="0.0566" style="stop-color:#5281AE"/>
		<stop  offset="0.6924" style="stop-color:#89B8B7"/>
		<stop  offset="1" style="stop-color:#9FCDBB"/>
	</linearGradient>
	<polygon clip-path="url(#SVGID_2_)" fill="url(#SVGID_3_)" points="0,0.099 0,13.431 0,26.757 13.443,13.431 	"/>
	<linearGradient id="SVGID_4_" gradientUnits="userSpaceOnUse" x1="0" y1="6.7158" x2="17.0527" y2="6.7158">
		<stop  offset="0" style="stop-color:#7DBEAB"/>
		<stop  offset="1" style="stop-color:#E0E79C"/>
	</linearGradient>
	<polygon clip-path="url(#SVGID_2_)" fill="url(#SVGID_4_)" points="17.053,9.851 11.627,6.715 0,0 0,0.099 13.443,13.431 	"/>
	<linearGradient id="SVGID_5_" gradientUnits="userSpaceOnUse" x1="8.5259" y1="13.4312" x2="8.5259" y2="26.8481">
		<stop  offset="0" style="stop-color:#CB423F"/>
		<stop  offset="0.1224" style="stop-color:#C0434B"/>
		<stop  offset="0.7137" style="stop-color:#8E4982"/>
		<stop  offset="1" style="stop-color:#7A4B98"/>
	</linearGradient>
	<polygon clip-path="url(#SVGID_2_)" fill="url(#SVGID_5_)" points="0,26.757 0,26.848 11.627,20.143 17.052,17.013 13.443,13.431 	
		"/>
	<linearGradient id="SVGID_6_" gradientUnits="userSpaceOnUse" x1="18.3496" y1="9.8506" x2="18.3496" y2="17.0132">
		<stop  offset="0" style="stop-color:#DB8678"/>
		<stop  offset="0.6121" style="stop-color:#E8AF78"/>
		<stop  offset="1" style="stop-color:#EFC578"/>
	</linearGradient>
	<polygon clip-path="url(#SVGID_2_)" fill="url(#SVGID_6_)" points="17.053,9.851 13.443,13.431 17.052,17.013 23.256,13.431 	"/>
</g>
<path fill="#F9F9F9" d="M84.627,18.645c-0.504,0-0.966-0.102-1.378-0.279c-0.422-0.194-0.766-0.482-1.051-0.863h-0.087
	c0.054,0.457,0.087,0.889,0.087,1.295v3.175h-1.178V10.74h0.959l0.158,1.066h0.061c0.298-0.426,0.65-0.736,1.052-0.921
	c0.403-0.184,0.862-0.285,1.377-0.285c1.032,0,1.824,0.355,2.383,1.054c0.559,0.708,0.837,1.688,0.837,2.953
	c0,1.276-0.281,2.261-0.847,2.972C86.427,18.289,85.638,18.645,84.627,18.645z M84.463,11.603c-0.798,0-1.366,0.216-1.722,0.658
	c-0.354,0.434-0.533,1.132-0.543,2.091v0.255c0,1.093,0.184,1.88,0.543,2.337c0.361,0.482,0.945,0.711,1.75,0.711
	c0.666,0,1.193-0.276,1.574-0.813c0.381-0.533,0.566-1.295,0.566-2.235c0-0.972-0.186-1.718-0.566-2.229
	C85.685,11.857,85.151,11.603,84.463,11.603z"/>
<path fill="#F9F9F9" d="M90.567,18.492h-1.174V7.489h1.174V18.492z"/>
<path fill="#F9F9F9" d="M97.317,18.492L97.082,17.4h-0.054c-0.386,0.482-0.771,0.813-1.157,0.99
	c-0.384,0.156-0.866,0.254-1.438,0.254c-0.771,0-1.372-0.203-1.807-0.607c-0.439-0.383-0.656-0.941-0.656-1.678
	c0-1.575,1.253-2.388,3.758-2.465l1.314-0.05v-0.477c0-0.609-0.133-1.054-0.394-1.346c-0.26-0.292-0.68-0.432-1.254-0.432
	c-0.646,0-1.38,0.19-2.192,0.587l-0.361-0.892c0.382-0.216,0.802-0.373,1.256-0.495c0.454-0.114,0.908-0.178,1.367-0.178
	c0.926,0,1.61,0.208,2.055,0.622c0.446,0.406,0.672,1.066,0.672,1.968v5.29H97.317z M94.666,17.68c0.731,0,1.304-0.203,1.723-0.609
	c0.414-0.406,0.625-0.965,0.625-1.676v-0.712l-1.176,0.051c-0.933,0.025-1.605,0.178-2.017,0.432
	c-0.415,0.254-0.619,0.661-0.619,1.194c0,0.432,0.127,0.762,0.384,0.981C93.846,17.553,94.203,17.68,94.666,17.68z"/>
<path fill="#F9F9F9" d="M98.87,10.74h1.256l1.7,4.425c0.375,1.017,0.606,1.736,0.692,2.185h0.058
	c0.063-0.229,0.189-0.654,0.389-1.234c0.19-0.577,0.835-2.372,1.916-5.375h1.262l-3.329,8.839c-0.33,0.868-0.72,1.478-1.163,1.858
	c-0.437,0.355-0.979,0.534-1.623,0.534c-0.358,0-0.711-0.026-1.061-0.108v-0.944c0.263,0.062,0.549,0.087,0.874,0.087
	c0.805,0,1.376-0.457,1.727-1.37l0.432-1.093L98.87,10.74z"/>
<path fill="#F9F9F9" d="M62.886,11.463c0.358,0.305,1.143,0.955,1.143,2.192c0,1.205-0.685,1.764-1.368,2.298
	c-0.206,0.211-0.445,0.438-0.445,0.8c0,0.356,0.239,0.546,0.417,0.698l0.584,0.457c0.711,0.588,1.371,1.143,1.371,2.26
	c0,1.523-1.473,3.072-4.266,3.072c-2.361,0-3.489-1.117-3.489-2.315c0-0.583,0.29-1.417,1.255-1.976
	c0.99-0.634,2.361-0.711,3.098-0.762c-0.229-0.279-0.495-0.584-0.495-1.092c0-0.279,0.089-0.432,0.165-0.635
	c-0.178,0.024-0.355,0.025-0.528,0.025c-1.706,0-2.69-1.271-2.69-2.541c0-0.743,0.35-1.57,1.035-2.178
	c0.939-0.762,2.031-0.889,2.92-0.889h3.327l-1.041,0.584H62.886z M61.72,18.67c-0.129-0.025-0.205-0.025-0.357-0.025
	s-1.036,0.035-1.701,0.26c-0.358,0.135-1.396,0.527-1.396,1.67c0,1.156,1.117,1.98,2.844,1.98c1.552,0,2.387-0.736,2.387-1.752
	C63.495,19.979,62.962,19.533,61.72,18.67z M62.2,15.583c0.376-0.367,0.406-0.9,0.406-1.18c0-1.175-0.709-2.99-2.055-2.99
	c-0.408,0-0.865,0.216-1.119,0.535c-0.279,0.341-0.355,0.785-0.355,1.204c0,1.085,0.626,2.877,2.017,2.877
	C61.495,16.029,61.946,15.852,62.2,15.583z"/>
<path fill="#F9F9F9" d="M52.671,18.416c-2.577,0-3.949-2.014-3.949-3.835c0-2.115,1.727-3.93,4.19-3.93
	c2.382,0,3.88,1.863,3.88,3.829C56.792,16.385,55.319,18.416,52.671,18.416z M54.685,17.096c0.406-0.515,0.498-1.168,0.498-1.803
	c0-1.424-0.676-4.143-2.689-4.143c-0.533,0-1.066,0.211-1.46,0.554c-0.633,0.563-0.746,1.281-0.746,1.973
	c0,1.607,0.797,4.237,2.753,4.237C53.668,17.915,54.329,17.604,54.685,17.096z"/>
<path fill="#F9F9F9" d="M43.897,18.416c-2.576,0-3.951-2.014-3.951-3.835c0-2.115,1.73-3.93,4.193-3.93
	c2.374,0,3.872,1.863,3.872,3.829C48.011,16.385,46.538,18.416,43.897,18.416z M45.917,17.096c0.393-0.515,0.485-1.168,0.485-1.803
	c0-1.424-0.675-4.143-2.682-4.143c-0.534,0-1.069,0.211-1.459,0.554c-0.635,0.563-0.748,1.281-0.748,1.973
	c0,1.607,0.797,4.237,2.754,4.237C44.901,17.915,45.548,17.604,45.917,17.096z"/>
<path fill="#F9F9F9" d="M38.706,18.162l-2.326,0.533c-0.946,0.146-1.791,0.279-2.688,0.279c-4.491,0-6.2-3.312-6.2-5.899
	c0-3.161,2.424-6.094,6.576-6.094c0.879,0,1.725,0.136,2.49,0.343c1.22,0.342,1.791,0.766,2.147,1.015l-1.349,1.283l-0.57,0.127
	l0.407-0.648c-0.555-0.534-1.563-1.531-3.483-1.531c-2.572,0-4.51,1.951-4.51,4.807c0,3.061,2.214,5.937,5.76,5.937
	c1.043,0,1.582-0.203,2.068-0.406v-2.615l-2.456,0.126l1.301-0.711h3.452l-0.422,0.406c-0.115,0.102-0.135,0.142-0.163,0.277
	c-0.021,0.13-0.035,0.612-0.035,0.765V18.162z"/>
<path fill="#F9F9F9" d="M68.018,17.68c-0.535-0.051-0.638-0.149-0.638-0.787v-0.178V7.692c0-0.038,0-0.076,0.001-0.112
	c0.075-0.563,0.229-0.662,0.735-0.954h-2.335L64.563,7.21h1.243v0.007V7.21v9.505v0.545c0,0.318-0.052,0.369-0.432,0.858h2.872
	l0.606-0.362C68.574,17.73,68.295,17.711,68.018,17.68z"/>
<path fill="#F9F9F9" d="M74.644,17.832c-0.177,0.102-0.356,0.203-0.532,0.294c-0.535,0.239-1.08,0.315-1.572,0.315
	c-0.512,0-1.323-0.051-2.138-0.635c-1.149-0.813-1.65-2.209-1.65-3.421c0-2.503,2.031-3.735,3.704-3.735
	c0.576,0,1.172,0.152,1.656,0.457c0.81,0.533,1.017,1.231,1.139,1.6l-3.807,1.543l-1.244,0.095c0.405,2.041,1.802,3.242,3.328,3.242
	c0.835,0,1.423-0.289,1.978-0.568L74.644,17.832z M73.122,13.012c0.307-0.114,0.479-0.203,0.479-0.432
	c0-0.647-0.735-1.396-1.6-1.396c-0.658,0-1.86,0.508-1.86,2.247c0,0.279,0.032,0.566,0.044,0.87L73.122,13.012z"/>
<path fill="#F9F9F9" d="M76.214,10.765v1.066h-0.137v-1.066H75.73v-0.114h0.828v0.114H76.214z"/>
<path fill="#F9F9F9" d="M77.663,11.832v-1.079h-0.002l-0.329,1.079H77.23l-0.331-1.079h-0.011v1.079h-0.114v-1.181h0.202
	l0.304,0.952h0.001l0.287-0.952h0.205v1.181H77.663z"/>
<path fill="#F9F9F9" d="M30.726,3.819h-0.809c0-0.113-0.077-0.43-0.231-0.95h-1.167c-0.157,0.511-0.235,0.825-0.235,0.95h-0.761
	c0-0.068,0.195-0.607,0.589-1.623c0.394-1.008,0.591-1.565,0.591-1.67h0.955c0,0.096,0.178,0.643,0.535,1.646
	C30.548,3.175,30.726,3.726,30.726,3.819z M29.558,2.386c-0.289-0.866-0.432-1.335-0.432-1.409h-0.04
	c0,0.064-0.15,0.534-0.447,1.409H29.558z"/>
<path fill="#F9F9F9" d="M33.984,3.819h-0.624c0-0.074-0.232-0.436-0.696-1.097c-0.484-0.693-0.762-1.173-0.827-1.427h-0.042
	c0.042,0.368,0.063,0.699,0.063,1.002c0,0.417,0.012,0.925,0.036,1.522h-0.622c0.025-0.522,0.038-1.102,0.038-1.725
	c0-0.612-0.013-1.138-0.038-1.569h0.75c0,0.091,0.209,0.448,0.625,1.071c0.443,0.662,0.698,1.107,0.764,1.347h0.038
	c-0.041-0.379-0.062-0.712-0.062-1.014c0-0.457-0.013-0.926-0.035-1.404h0.631c-0.025,0.416-0.036,0.943-0.036,1.569
	C33.949,2.729,33.959,3.3,33.984,3.819z"/>
<path fill="#F9F9F9" d="M37.649,2.056c0,0.481-0.153,0.899-0.461,1.256c-0.309,0.356-0.736,0.534-1.288,0.534
	c-0.252,0-0.595-0.013-1.032-0.027c0.021-0.509,0.031-1.088,0.031-1.725c0-0.611-0.011-1.133-0.031-1.569h0.443
	c0.069,0,0.179-0.005,0.322-0.006c0.143-0.006,0.237-0.011,0.28-0.011c0.608,0,1.05,0.152,1.322,0.457
	C37.512,1.269,37.649,1.635,37.649,2.056z M36.957,2.168c0-0.328-0.092-0.597-0.282-0.823c-0.189-0.217-0.475-0.331-0.863-0.331
	c-0.075,0-0.173,0.01-0.298,0.024c0.016,0.334,0.025,0.687,0.025,1.055c0,0.405,0.007,0.8,0.025,1.198
	c0.109,0.021,0.219,0.033,0.328,0.033c0.364,0,0.631-0.114,0.806-0.337S36.957,2.488,36.957,2.168z"/>
<path fill="#F9F9F9" d="M41.027,3.819h-0.749c-0.198-0.597-0.344-0.965-0.454-1.104c-0.103-0.14-0.269-0.214-0.5-0.214
	c-0.099,0-0.191,0-0.282,0c0,0.436,0.006,0.875,0.02,1.318h-0.699c0.022-0.509,0.034-1.088,0.034-1.725
	c0-0.611-0.011-1.133-0.034-1.569h0.434c0.05,0,0.161-0.005,0.317-0.006c0.164-0.006,0.314-0.011,0.45-0.011
	c0.77,0,1.16,0.266,1.16,0.797c0,0.42-0.222,0.712-0.662,0.877V2.22c0.167,0.048,0.318,0.179,0.446,0.395
	C40.635,2.832,40.811,3.236,41.027,3.819z M40.077,1.493c0-0.338-0.216-0.504-0.647-0.504c-0.155,0-0.295,0.013-0.419,0.037
	c0.021,0.257,0.026,0.599,0.026,1.018c0.097,0.001,0.174,0.008,0.238,0.008C39.81,2.051,40.077,1.865,40.077,1.493z"/>
<path fill="#F9F9F9" d="M44.647,2.107c0,0.52-0.154,0.951-0.471,1.292c-0.317,0.336-0.71,0.51-1.18,0.51
	c-0.444,0-0.814-0.156-1.117-0.47c-0.297-0.316-0.446-0.71-0.446-1.193c0-0.52,0.154-0.944,0.471-1.285
	c0.317-0.341,0.711-0.511,1.18-0.511c0.444,0,0.813,0.156,1.117,0.464C44.495,1.23,44.647,1.625,44.647,2.107z M43.949,2.183
	c0-0.354-0.089-0.636-0.267-0.854C43.503,1.105,43.276,1,43.01,1c-0.242,0-0.451,0.106-0.623,0.331
	c-0.175,0.218-0.256,0.497-0.256,0.838c0,0.345,0.09,0.635,0.269,0.853c0.178,0.216,0.405,0.33,0.668,0.33
	c0.246,0,0.45-0.114,0.626-0.331C43.863,2.795,43.949,2.519,43.949,2.183z"/>
<path fill="#F9F9F9" d="M46.081,3.819h-0.723c0.025-0.522,0.038-1.102,0.038-1.725c0-0.612-0.013-1.138-0.038-1.569h0.723
	c-0.025,0.425-0.038,0.947-0.038,1.569C46.043,2.729,46.056,3.301,46.081,3.819z"/>
<path fill="#F9F9F9" d="M49.738,2.056c0,0.481-0.152,0.899-0.457,1.256c-0.305,0.356-0.736,0.534-1.29,0.534
	c-0.247,0-0.59-0.013-1.034-0.027c0.025-0.509,0.038-1.088,0.038-1.725c0-0.611-0.013-1.133-0.038-1.569h0.445
	c0.076,0,0.178-0.005,0.328-0.006c0.141-0.006,0.23-0.011,0.281-0.011c0.608,0,1.042,0.152,1.321,0.457
	C49.603,1.269,49.738,1.635,49.738,2.056z M49.053,2.168c0-0.328-0.097-0.597-0.281-0.823c-0.189-0.217-0.481-0.331-0.867-0.331
	c-0.071,0-0.172,0.01-0.299,0.024c0.013,0.334,0.025,0.687,0.025,1.055c0,0.405,0.012,0.8,0.025,1.198
	c0.113,0.021,0.215,0.033,0.33,0.033c0.357,0,0.631-0.114,0.8-0.337C48.963,2.765,49.053,2.488,49.053,2.168z"/>
<path fill="#F9F9F9" d="M54.608,3.819h-0.813c0-0.113-0.077-0.43-0.229-0.95h-1.174c-0.152,0.511-0.234,0.825-0.234,0.95h-0.757
	c0-0.068,0.191-0.607,0.584-1.623c0.394-1.008,0.594-1.565,0.594-1.67h0.956c0,0.096,0.183,0.643,0.54,1.646
	C54.431,3.175,54.608,3.726,54.608,3.819z M53.438,2.386c-0.297-0.866-0.438-1.335-0.438-1.409h-0.037
	c0,0.064-0.153,0.534-0.446,1.409H53.438z"/>
<path fill="#F9F9F9" d="M57.554,1.384c0,0.405-0.152,0.704-0.457,0.897c-0.301,0.191-0.66,0.283-1.092,0.283
	c-0.076,0-0.139,0-0.178-0.001c0,0.317,0.017,0.736,0.025,1.255h-0.711c0.025-0.493,0.048-1.064,0.048-1.725
	c0-0.608-0.022-1.13-0.048-1.569h0.457c0.051,0,0.178-0.005,0.355-0.006c0.178-0.006,0.33-0.011,0.457-0.011
	c0.314,0,0.584,0.076,0.813,0.217C57.441,0.875,57.554,1.091,57.554,1.384z M56.894,1.524c0-0.357-0.229-0.537-0.711-0.537
	c-0.127,0-0.254,0.013-0.381,0.038c0.025,0.317,0.025,0.675,0.025,1.081c0.051,0.001,0.102,0.001,0.152,0.001
	C56.589,2.107,56.894,1.917,56.894,1.524z"/>
<path fill="#F9F9F9" d="M60.575,1.384c0,0.405-0.151,0.704-0.436,0.897c-0.301,0.191-0.681,0.283-1.113,0.283
	c-0.076,0-0.127,0-0.159-0.001c0,0.317,0.007,0.736,0.032,1.255h-0.711c0.018-0.493,0.025-1.064,0.025-1.725
	c0-0.608-0.008-1.13-0.025-1.569h0.432c0.059,0,0.178-0.005,0.355-0.006c0.178-0.006,0.33-0.011,0.457-0.011
	c0.33,0,0.598,0.076,0.813,0.217C60.474,0.875,60.575,1.091,60.575,1.384z M59.935,1.524c0-0.357-0.248-0.537-0.73-0.537
	c-0.105,0-0.23,0.013-0.38,0.038c0.024,0.317,0.033,0.675,0.033,1.081c0.042,0.001,0.093,0.001,0.144,0.001
	C59.618,2.107,59.935,1.917,59.935,1.524z"/>
<path fill="#F9F9F9" d="M65.531,2.107c0,0.52-0.156,0.951-0.462,1.292c-0.33,0.336-0.711,0.51-1.188,0.51
	c-0.437,0-0.817-0.156-1.116-0.47c-0.285-0.316-0.438-0.71-0.438-1.193c0-0.52,0.152-0.944,0.462-1.285
	c0.325-0.341,0.708-0.511,1.188-0.511c0.433,0,0.813,0.156,1.117,0.464C65.389,1.23,65.531,1.625,65.531,2.107z M64.841,2.183
	c0-0.354-0.098-0.636-0.277-0.854C64.384,1.105,64.162,1,63.901,1c-0.252,0-0.456,0.106-0.633,0.331
	c-0.159,0.218-0.256,0.497-0.256,0.838c0,0.345,0.102,0.635,0.279,0.853c0.178,0.216,0.406,0.33,0.661,0.33
	c0.253,0,0.456-0.114,0.634-0.331C64.76,2.795,64.841,2.519,64.841,2.183z"/>
<path fill="#F9F9F9" d="M68.957,3.819h-0.612c0-0.074-0.229-0.436-0.707-1.097c-0.485-0.693-0.762-1.173-0.816-1.427h-0.05
	c0.05,0.368,0.075,0.699,0.075,1.002c0,0.417,0.001,0.925,0.025,1.522h-0.617c0.024-0.522,0.033-1.102,0.033-1.725
	c0-0.612-0.009-1.138-0.033-1.569H67c0,0.091,0.204,0.448,0.634,1.071c0.433,0.662,0.687,1.107,0.762,1.347h0.026
	c-0.026-0.379-0.052-0.712-0.052-1.014c0-0.457-0.021-0.926-0.042-1.404h0.629c-0.023,0.416-0.028,0.943-0.028,1.569
	C68.929,2.729,68.934,3.3,68.957,3.819z"/>
</svg>
