<?xml version="1.0" encoding="utf-8"?>
<!-- Generator: Adobe Illustrator 15.0.0, SVG Export Plug-In  -->
<!DOCTYPE svg PUBLIC "-//W3C//DTD SVG 1.1//EN" "http://www.w3.org/Graphics/SVG/1.1/DTD/svg11.dtd" [
	<!ENTITY ns_flows "http://ns.adobe.com/Flows/1.0/">
]>
<svg version="1.1"
	 xmlns="http://www.w3.org/2000/svg" xmlns:xlink="http://www.w3.org/1999/xlink" xmlns:a="http://ns.adobe.com/AdobeSVGViewerExtensions/3.0/"
	 x="0px" y="0px" width="120px" height="70px" viewBox="-9.659 -19.274 120 70" enable-background="new -9.659 -19.274 120 70"
	 xml:space="preserve">
<defs>
</defs>
<g>
	<g>
		<path fill="#FFFFFF" d="M11.199,6.688v1.309l0.861-0.172v-1.13c-0.021-1.845,0.462-2.23,1.719-2.768
			c-0.006-0.348-0.037-0.643-0.092-0.886C12.249,3.541,11.199,3.969,11.199,6.688z M18.529,5.834v0.709l0.851-0.173V5.834
			c0-2.98-0.47-3.779-3.191-3.375c0.057,0.263,0.103,0.55,0.133,0.857C18.572,2.996,18.529,3.915,18.529,5.834z M7.322,4.843
			c-0.027-2.428,1.239-3.171,3.577-3.715c3.521-0.818,3.745,1.431,3.745,2.861v3.324l0.862-0.173V4.063
			c-0.009-2.708-0.861-4.735-4.78-3.855c-2.11,0.474-4.265,1.008-4.265,4.555v4.171l0.861-0.17V4.843z M0,11.243V28.31l23.689,4.691
			l4.735-1.705V8.257l-4.735-1.706L0,11.243z M10.35,24.779l-5.256-0.733v-4.322h5.256V24.779z M10.35,19.067H5.094v-3.976
			l5.256-0.735V19.067z M17.637,25.78l-6.626-0.96v-5.097h6.626V25.78z M17.637,19.067H11.01v-4.75l6.626-0.961V19.067z
			 M40.264,15.862l2.977-9.375c0.157-0.497,0.248-0.882,0.271-1.154h0.035c0.018,0.307,0.096,0.697,0.236,1.171l2.793,9.357h0.718
			l3.677-12.436h-0.937l-3.021,10.805l-0.061,0.26h-0.035c-0.041-0.226-0.131-0.592-0.271-1.101l-2.845-9.965h-0.438
			c-2.224,7.158-3.346,10.777-3.367,10.857c-0.021,0.082-0.033,0.151-0.039,0.208h-0.035c-0.07-0.341-0.161-0.708-0.271-1.101
			l-2.863-9.965h-0.972l3.729,12.436H40.264z M52.673,15.862h0.807v-8.88h-0.807V15.862z M53.068,3.426
			c-0.17,0-0.322,0.06-0.459,0.178c-0.138,0.119-0.206,0.273-0.206,0.464c0,0.197,0.067,0.359,0.201,0.485
			c0.134,0.128,0.289,0.191,0.464,0.191c0.187,0,0.348-0.066,0.481-0.199c0.134-0.134,0.202-0.292,0.202-0.478
			c0-0.196-0.069-0.352-0.207-0.469C53.408,3.484,53.25,3.426,53.068,3.426z M56.977,10.763c0-0.931,0.28-1.708,0.841-2.333
			c0.561-0.624,1.266-0.937,2.119-0.937c1.552,0,2.328,1.066,2.328,3.2v5.169h0.806v-5.402c0-1.191-0.256-2.105-0.767-2.741
			s-1.254-0.954-2.229-0.954c-1.389,0-2.41,0.61-3.063,1.83h-0.035V6.981h-0.806v8.88h0.806V10.763z M71.953,8.403h-0.035
			c-0.572-1.093-1.529-1.639-2.871-1.639c-0.801,0-1.514,0.205-2.142,0.616c-0.627,0.411-1.112,0.983-1.453,1.717
			c-0.342,0.735-0.513,1.561-0.513,2.48c0,1.383,0.346,2.478,1.033,3.288c0.689,0.809,1.594,1.214,2.715,1.214
			c0.705,0,1.346-0.166,1.921-0.495c0.575-0.329,1.012-0.774,1.31-1.335h0.035v1.613h0.805V2.714h-0.805V8.403z M71.953,12.115
			c0,0.96-0.295,1.739-0.885,2.337s-1.366,0.898-2.329,0.898c-0.911,0-1.632-0.347-2.162-1.041
			c-0.531-0.693-0.797-1.627-0.797-2.801c0-1.219,0.304-2.194,0.91-2.922c0.608-0.729,1.387-1.093,2.339-1.093
			c0.857,0,1.559,0.28,2.104,0.841c0.546,0.561,0.819,1.27,0.819,2.125V12.115z M79.144,6.765c-1.324,0-2.38,0.422-3.164,1.267
			c-0.785,0.844-1.178,1.991-1.178,3.442c0,1.382,0.383,2.495,1.15,3.339c0.769,0.844,1.8,1.267,3.096,1.267
			c1.283,0,2.311-0.427,3.082-1.279c0.77-0.853,1.155-1.974,1.155-3.361c0-1.451-0.371-2.593-1.112-3.425
			C81.433,7.181,80.422,6.765,79.144,6.765z M81.56,14.31c-0.589,0.694-1.418,1.041-2.486,1.041c-1.044,0-1.878-0.35-2.499-1.05
			c-0.622-0.699-0.933-1.636-0.933-2.81c0-1.249,0.313-2.228,0.941-2.936c0.628-0.708,1.47-1.062,2.525-1.062
			c1.068,0,1.891,0.337,2.469,1.01c0.578,0.674,0.867,1.647,0.867,2.918C82.445,12.653,82.15,13.616,81.56,14.31z M92.753,14.066
			c-0.099,0.341-0.148,0.59-0.148,0.746h-0.07c-0.035-0.318-0.076-0.566-0.122-0.746l-2.031-7.085H89.83l-2.276,7.085
			c-0.099,0.365-0.154,0.613-0.166,0.746h-0.069c-0.024-0.301-0.065-0.549-0.123-0.746l-2.084-7.085h-0.893l2.705,8.88h0.752
			l2.189-6.712c0.111-0.369,0.17-0.612,0.175-0.729h0.044c0.059,0.382,0.105,0.631,0.141,0.745l1.951,6.696h0.754l2.783-8.88h-0.831
			L92.753,14.066z M101.487,12.237c-0.339-0.358-0.986-0.749-1.943-1.17c-0.496-0.214-0.874-0.409-1.134-0.586
			c-0.26-0.176-0.443-0.36-0.552-0.55c-0.108-0.191-0.162-0.457-0.162-0.798c0-0.479,0.183-0.873,0.548-1.179
			c0.364-0.307,0.838-0.46,1.422-0.46c0.706,0,1.395,0.214,2.066,0.642V7.233c-0.555-0.312-1.214-0.468-1.979-0.468
			c-0.829,0-1.519,0.228-2.07,0.681c-0.551,0.454-0.828,1.034-0.828,1.738c0,0.607,0.186,1.106,0.557,1.497
			c0.37,0.39,0.962,0.756,1.772,1.097c0.747,0.323,1.263,0.623,1.546,0.897s0.424,0.598,0.424,0.967c0,1.14-0.703,1.709-2.109,1.709
			c-0.333,0-0.72-0.083-1.16-0.248s-0.795-0.363-1.064-0.594v0.963c0.572,0.404,1.293,0.607,2.164,0.607
			c0.91,0,1.639-0.225,2.188-0.672s0.824-1.037,0.824-1.765C101.996,13.063,101.826,12.596,101.487,12.237z M40.01,19.642h-3.029
			v12.437h0.867v-4.986h1.803c1.325,0,2.38-0.361,3.165-1.085c0.785-0.722,1.178-1.682,1.178-2.879c0-1.145-0.339-2.012-1.016-2.602
			C42.301,19.937,41.312,19.642,40.01,19.642z M42.221,25.505c-0.587,0.531-1.449,0.798-2.587,0.798h-1.786v-5.872h2.005
			c2.165,0,3.248,0.934,3.248,2.802C43.101,24.216,42.807,24.973,42.221,25.505z M50.301,22.981c-1.342,0-2.37,0.604-3.082,1.813
			h-0.035v-5.863h-0.806v13.147h0.806v-4.917c0-0.677,0.125-1.276,0.376-1.8c0.251-0.522,0.6-0.929,1.046-1.218
			c0.446-0.29,0.941-0.434,1.484-0.434c0.817,0,1.418,0.244,1.804,0.731c0.386,0.489,0.577,1.26,0.577,2.312v5.325h0.807v-5.507
			c0-1.162-0.254-2.051-0.758-2.667C52.016,23.289,51.276,22.981,50.301,22.981z M59.49,22.981c-1.325,0-2.381,0.422-3.165,1.266
			s-1.177,1.991-1.177,3.443c0,1.381,0.383,2.494,1.15,3.338c0.768,0.845,1.799,1.267,3.096,1.267c1.283,0,2.311-0.427,3.081-1.279
			s1.155-1.973,1.155-3.36c0-1.451-0.37-2.594-1.111-3.426C61.777,23.397,60.768,22.981,59.49,22.981z M61.906,30.525
			c-0.59,0.694-1.418,1.041-2.486,1.041c-1.045,0-1.878-0.35-2.5-1.05c-0.621-0.699-0.932-1.636-0.932-2.81
			c0-1.249,0.314-2.228,0.941-2.936s1.469-1.062,2.525-1.062c1.068,0,1.891,0.336,2.469,1.01s0.867,1.646,0.867,2.918
			C62.791,28.87,62.496,29.832,61.906,30.525z M69.58,22.981c-1.389,0-2.41,0.609-3.064,1.829H66.48v-1.612h-0.805v8.88h0.805v-5.1
			c0-0.931,0.28-1.708,0.841-2.333c0.56-0.624,1.267-0.936,2.118-0.936c1.553,0,2.329,1.066,2.329,3.199v5.169h0.806v-5.402
			c0-1.191-0.256-2.104-0.766-2.741C71.296,23.299,70.554,22.981,69.58,22.981z M78.461,22.981c-0.753,0-1.438,0.199-2.053,0.598
			c-0.616,0.398-1.098,0.953-1.444,1.66c-0.348,0.709-0.521,1.491-0.521,2.347c0,1.457,0.351,2.606,1.051,3.447
			s1.64,1.262,2.819,1.262c1.138,0,2.174-0.326,3.107-0.979v-0.85c-0.95,0.733-1.932,1.101-2.942,1.101
			c-0.985,0-1.765-0.341-2.336-1.023c-0.573-0.682-0.858-1.639-0.858-2.87h6.636v-0.355c0-1.365-0.303-2.429-0.91-3.191
			C80.402,23.362,79.552,22.981,78.461,22.981z M75.319,26.944c0.128-1.035,0.466-1.833,1.015-2.395
			c0.549-0.561,1.247-0.84,2.093-0.84c0.806,0,1.44,0.281,1.905,0.846c0.463,0.563,0.713,1.359,0.748,2.389H75.319z"/>
	</g>
</g>
</svg>
